<?xml version="1.0" encoding="UTF-8"?>
<svg version="1.1" xmlns="http://www.w3.org/2000/svg" width="162" height="159">
<path d="M0 0 C53.46 0 106.92 0 162 0 C162 52.47 162 104.94 162 159 C108.54 159 55.08 159 0 159 C0 106.53 0 54.06 0 0 Z " fill="#FDFDF9" transform="translate(0,0)"/>
<path d="M0 0 C53.46 0 106.92 0 162 0 C162 52.47 162 104.94 162 159 C108.54 159 55.08 159 0 159 C0 106.53 0 54.06 0 0 Z M19.74609375 29.3671875 C4.56324327 47.01613698 0.48130354 68.34502938 2 91 C4.05649372 110.24718391 15.79294402 128.57709686 30.3125 140.94140625 C50.37789017 156.3112618 71.21490074 160.10772593 95.890625 157.60546875 C115.50047397 153.78696801 134.53986854 140.14168787 145.71801758 123.89477539 C157.40619488 106.01598298 161.78476737 84.94214606 157.9375 63.9375 C152.744706 42.94995759 140.59455836 24.35527067 122 13 C119.38438204 11.52175847 116.73589562 10.12068835 114.0625 8.75 C113.11515991 8.25608765 113.11515991 8.25608765 112.14868164 7.75219727 C102.28486258 2.859673 92.87131702 1.5277423 81.9375 1.6875 C80.83083984 1.68427734 79.72417969 1.68105469 78.58398438 1.67773438 C54.48876827 1.83428923 36.04412825 12.25001435 19.74609375 29.3671875 Z " fill="#010100" transform="translate(0,0)"/>
<path d="M0 0 C0 3 0 3 -1 5 C-0.443125 4.91621094 0.11375 4.83242188 0.6875 4.74609375 C6.09036559 4.02510324 10.61789858 4.20591946 16 5 C17.11375 5 18.2275 5 19.375 5 C22 5 22 5 24 6 C28.27193111 6.45797862 28.27193111 6.45797862 31.8671875 4.46484375 C34.62349064 2.57177841 35.99100299 2.84080306 39.25 3.3125 C40.58804688 3.49232422 40.58804688 3.49232422 41.953125 3.67578125 C42.62859375 3.78277344 43.3040625 3.88976563 44 4 C42.37633534 7.24732932 39.24612161 7.70155136 36 9 C36 11.64 36 14.28 36 17 C35.34 16.67 34.68 16.34 34 16 C34 13.36 34 10.72 34 8 C33.34 8.33 32.68 8.66 32 9 C32 12.63 32 16.26 32 20 C31.01 19.67 30.02 19.34 29 19 C28.505 16.03 28.505 16.03 28 13 C27.34 13 26.68 13 26 13 C26 15.31 26 17.62 26 20 C25.34 20 24.68 20 24 20 C23.34 17.69 22.68 15.38 22 13 C21.67 13 21.34 13 21 13 C20.67 15.31 20.34 17.62 20 20 C19.01 19.67 18.02 19.34 17 19 C16.3125 16.9375 16.3125 16.9375 16 15 C15.01 17.31 14.02 19.62 13 22 C16.63 21.67 20.26 21.34 24 21 C22.02 21.99 22.02 21.99 20 23 C18.33700035 25.41055254 18.33700035 25.41055254 17 28 C16.34 28.99 15.68 29.98 15 31 C13.9499815 37.66829933 15.81021958 43.75651893 18 50 C19.134375 49.814375 20.26875 49.62875 21.4375 49.4375 C22.613125 49.293125 23.78875 49.14875 25 49 C25.33 49.33 25.66 49.66 26 50 C26.66 49.34 27.32 48.68 28 48 C30.68839385 47.73008094 33.29141936 47.91262643 36 48 C36.433125 47.030625 36.86625 46.06125 37.3125 45.0625 C39 42 39 42 42 41 C41.64192708 42.98567708 41.28385417 44.97135417 40.92578125 46.95703125 C40.79472176 49.12243264 40.79472176 49.12243264 42.48046875 50.76171875 C43.23263672 51.37466797 43.23263672 51.37466797 44 52 C42.37615858 53.14747465 40.75088944 54.2929291 39.125 55.4375 C38.22007813 56.07558594 37.31515625 56.71367188 36.3828125 57.37109375 C34 59 34 59 32 60 C32.26025486 63.6852088 32.43386247 65.4683583 35.1796875 68.046875 C36.06914063 68.60890625 36.95859375 69.1709375 37.875 69.75 C38.75929687 70.32234375 39.64359375 70.8946875 40.5546875 71.484375 C41.76511719 72.23460937 41.76511719 72.23460937 43 73 C43.99 73.66 44.98 74.32 46 75 C45.67 76.65 45.34 78.3 45 80 C43.35 80 41.7 80 40 80 C39.731875 80.61875 39.46375 81.2375 39.1875 81.875 C38 84 38 84 35 86 C32.33333333 86 29.66666667 86 27 86 C26.01 86.66 25.02 87.32 24 88 C19.52056491 88.3257771 16.92805766 87.96402883 13 86 C11.80375 86 10.6075 86 9.375 86 C8.26125 86 7.1475 86 6 86 C5.34 85.34 4.68 84.68 4 84 C1.68234271 83.28072705 -0.65095874 82.6090107 -3 82 C-3.8125 79.8125 -3.8125 79.8125 -4 77 C-1.58235421 73.99625827 0.91070376 72.05893552 4.125 69.9375 C6.83414526 68.11177167 8.47440579 66.87170676 10 64 C9.99951164 62.02929583 9.99951164 62.02929583 9 60 C6.61043011 57.90594868 6.61043011 57.90594868 3.6875 56 C0.11292429 53.55649832 -3.03076408 51.15966197 -6 48 C-5.67 47.34 -5.34 46.68 -5 46 C-4.236875 46.825 -3.47375 47.65 -2.6875 48.5 C-0.24565858 51.34055197 -0.24565858 51.34055197 3 51 C1.84731715 45.09485795 1.84731715 45.09485795 -0.125 39.4375 C-2.53632604 32.72023459 -0.67698874 27.24630707 2 21 C0.906875 21.33 -0.18625 21.66 -1.3125 22 C-5 23 -5 23 -8 23 C-3.73688282 18.87010523 -0.71241466 18.38728235 5 18 C4.67 18.66 4.34 19.32 4 20 C6.64 20.33 9.28 20.66 12 21 C11.979375 19.9275 11.95875 18.855 11.9375 17.75 C11.9857984 14.85209576 12.13155885 12.71387859 13 10 C12.34 10 11.68 10 11 10 C10.34 11.65 9.68 13.3 9 15 C7.66667905 12.3333581 8.32897967 10.83319697 9 8 C8.37351562 7.93941406 7.74703125 7.87882812 7.1015625 7.81640625 C6.28429687 7.73261719 5.46703125 7.64882813 4.625 7.5625 C3.40683594 7.44068359 3.40683594 7.44068359 2.1640625 7.31640625 C0 7 0 7 -2 6 C-1.125 1.125 -1.125 1.125 0 0 Z " fill="#C8B21B" transform="translate(59,56)"/>
<path d="M0 0 C0.93779297 0.41064697 0.93779297 0.41064697 1.89453125 0.82958984 C23.24067619 10.2425051 37.91245654 25.76292784 46.7109375 47.40625 C54.10160665 68.01053974 52.18112927 89.2406131 43 109 C38.73441422 116.93398955 33.29876138 123.5942987 27 130 C26.31292969 130.69996094 25.62585938 131.39992187 24.91796875 132.12109375 C8.42130115 147.82200373 -12.0350647 152.88442617 -34.1796875 152.33984375 C-54.82747802 151.40614096 -72.6099347 140.94071836 -86.6875 126.3125 C-102.74629559 107.78312047 -107.63046773 85.91921763 -106 62 C-104.18715638 46.96444392 -96.14723214 32.04257616 -86 21 C-85.36320312 20.29488281 -84.72640625 19.58976562 -84.0703125 18.86328125 C-64.00213623 -2.29292867 -27.37550212 -12.65404069 0 0 Z M-74 15 C-75.24716797 15.98419922 -75.24716797 15.98419922 -76.51953125 16.98828125 C-86.00336031 24.95702855 -93.3222178 35.52911496 -98 47 C-98.391875 47.95261719 -98.78375 48.90523437 -99.1875 49.88671875 C-104.13586077 64.13043777 -104.38723322 82.87121854 -99 97 C-98.58621094 98.13308594 -98.17242187 99.26617187 -97.74609375 100.43359375 C-94.54945313 108.52536252 -90.46874018 115.25627416 -85 122 C-83.82244141 123.48693359 -83.82244141 123.48693359 -82.62109375 125.00390625 C-71.80935933 137.36247599 -54.57253832 146.73521283 -38.12597656 148.26782227 C-35.2235573 148.36402826 -32.34095072 148.36124833 -29.4375 148.3125 C-28.47392578 148.31572266 -27.51035156 148.31894531 -26.51757812 148.32226562 C-5.6225497 148.1672789 12.37596298 139.74610744 27 125 C41.32526092 109.9096699 47.61986834 90.12494459 47.28125 69.59375 C46.81357968 58.51931691 43.24963572 47.70297839 38 38 C37.52046875 37.11054687 37.0409375 36.22109375 36.546875 35.3046875 C26.4012288 18.0176884 9.68408903 6.22788487 -9.59375 1.03125 C-32.51207036 -4.08275537 -55.4933349 0.16407839 -74 15 Z " fill="#BDA70D" transform="translate(108,6)"/>
<path d="M0 0 C2.34765625 2.109375 2.34765625 2.109375 4 4 C3.236875 3.690625 2.47375 3.38125 1.6875 3.0625 C-2.94823337 1.2297682 -6.87497124 0.78581163 -11.8125 0.75 C-12.86147461 0.7190625 -12.86147461 0.7190625 -13.93164062 0.6875 C-18.70974321 0.65174245 -21.97150878 1.42127208 -26 4 C-27.29675513 7.07979343 -27.13210892 8.55286212 -26.1875 11.75 C-25.20530756 14.13996162 -25.20530756 14.13996162 -23 15 C-25.375 14.75 -25.375 14.75 -28 14 C-29.3125 11.9375 -29.3125 11.9375 -30 10 C-30.66 10 -31.32 10 -32 10 C-31.67 11.65 -31.34 13.3 -31 15 C-30.41992188 15.03738281 -29.83984375 15.07476562 -29.2421875 15.11328125 C-24.18321136 15.53903667 -20.45720842 16.37138991 -16 19 C-16.825 18.2575 -17.65 17.515 -18.5 16.75 C-21 14 -21 14 -21 10 C-20.01 10 -19.02 10 -18 10 C-17.5875 10.94875 -17.175 11.8975 -16.75 12.875 C-14.9959869 16.00716624 -14.29148243 16.86500606 -11 18 C-15.54606057 21.59896461 -20.47849169 25.15949723 -26 27 C-27.13545562 29.29534258 -27.13545562 29.29534258 -28 32 C-28.33644531 32.74121094 -28.67289063 33.48242188 -29.01953125 34.24609375 C-30.17501406 37.49157336 -30.41687451 40.37842941 -30.625 43.8125 C-30.69976562 44.97394531 -30.77453125 46.13539062 -30.8515625 47.33203125 C-30.92503906 48.65267578 -30.92503906 48.65267578 -31 50 C-32.32 48.68 -33.64 47.36 -35 46 C-36.95302322 47.95302322 -36.21946533 51.47977582 -36.25 54.0625 C-36.20666828 65.59144482 -32.9952397 70.79585855 -25 79 C-25.59296875 79.12246094 -26.1859375 79.24492188 -26.796875 79.37109375 C-29.96556254 80.27563044 -32.32619384 82.11618203 -35 84 C-33.9790625 85.6396875 -33.9790625 85.6396875 -32.9375 87.3125 C-31.77734375 89.17578125 -31.77734375 89.17578125 -31 91 C-31.33 91.99 -31.66 92.98 -32 94 C-32.31710938 93.41734375 -32.63421875 92.8346875 -32.9609375 92.234375 C-35.87214034 87.11966504 -39.00357977 82.75936911 -42.9375 78.375 C-50.43018159 69.60335615 -55.79103822 58.70185953 -56 47 C-54 50 -54 50 -54 54 C-53.34 54 -52.68 54 -52 54 C-52 53.34 -52 52.68 -52 52 C-51.13375 52.20625 -50.2675 52.4125 -49.375 52.625 C-45.60131961 53.04429782 -43.44818459 52.52361645 -40 51 C-39.67 50.34 -39.34 49.68 -39 49 C-39.99 49.495 -39.99 49.495 -41 50 C-42.64142541 50.14640501 -44.2898141 50.22096589 -45.9375 50.25 C-46.81277344 50.27578125 -47.68804687 50.3015625 -48.58984375 50.328125 C-51 50 -51 50 -52.8359375 48.62109375 C-54 47 -54 47 -53.6875 44.8125 C-53.460625 44.214375 -53.23375 43.61625 -53 43 C-52.67 43.99 -52.34 44.98 -52 46 C-47.71 46.33 -43.42 46.66 -39 47 C-39 46.34 -39 45.68 -39 45 C-40.010625 44.896875 -41.02125 44.79375 -42.0625 44.6875 C-46.28893311 43.94955136 -49.19517342 42.93971551 -53 41 C-53.66 40.01 -54.32 39.02 -55 38 C-55.33 40.64 -55.66 43.28 -56 46 C-56.33 46 -56.66 46 -57 46 C-57 43.03 -57 40.06 -57 37 C-58.98 37.495 -58.98 37.495 -61 38 C-61.34672063 32.45246999 -60.7242507 27.92544527 -58 23 C-56.36395804 21.62926214 -54.69321939 20.29944744 -53 19 C-52.04677004 17.60767286 -51.13393712 16.18731604 -50.25 14.75 C-44.37436849 5.6749152 -37.34771803 0.88432455 -27 -2 C-26.33613281 -2.19207031 -25.67226563 -2.38414063 -24.98828125 -2.58203125 C-16.82149345 -4.29882161 -7.69309397 -3.06352033 0 0 Z " fill="#F0ECCC" transform="translate(72,30)"/>
<path d="M0 0 C7.71669016 3.08667606 11.30109673 8.74445896 15 16 C15 16.66 15 17.32 15 18 C15.598125 18.04125 16.19625 18.0825 16.8125 18.125 C19 19 19 19 20.6875 21.375 C22.43876561 26.21182884 22.7363185 30.89003431 23 36 C22.01 36 21.02 36 20 36 C19.86464844 36.8971875 19.72929687 37.794375 19.58984375 38.71875 C16.75365158 55.15847466 10.66114248 68.63404483 -1.39453125 80.34375 C-6.66055219 85.77633608 -8.97296924 91.63961289 -10 99 C-14.21422242 96.11658466 -15.76075855 93.95696581 -17 89 C-18.98 88.67 -20.96 88.34 -23 88 C-19.86650268 86.95550089 -19.01031744 87.06576355 -16 88 C-16 87.34 -16 86.68 -16 86 C-19.3 85.34 -22.6 84.68 -26 84 C-25.67 84.66 -25.34 85.32 -25 86 C-26.32 85.34 -27.64 84.68 -29 84 C-29 83.34 -29 82.68 -29 82 C-28.31035156 81.79246094 -27.62070313 81.58492188 -26.91015625 81.37109375 C-17.48795838 78.28206043 -10.55606665 74.35526555 -5.4375 65.625 C-1.89995448 57.93595479 -2.51516297 50.251208 -3 42 C-3 41.01 -3 40.02 -3 39 C-1.515 39.495 -1.515 39.495 0 40 C2.64126543 39.3526161 2.64126543 39.3526161 5.4375 38.25 C6.38496094 37.90453125 7.33242187 37.5590625 8.30859375 37.203125 C10.91813582 36.03659531 12.89587598 34.92998962 15 33 C15.80946422 29.89802603 15.80946422 29.89802603 16 27 C15.46375 27.928125 14.9275 28.85625 14.375 29.8125 C11.75365167 33.33062538 10.09178682 34.52695674 6 36 C2.625 36.1875 2.625 36.1875 0 36 C2.50999108 33.84857907 4.57080348 32.15970103 7.6875 31 C10.11484354 30.20792925 10.11484354 30.20792925 11.1875 28.125 C11.455625 27.42375 11.72375 26.7225 12 26 C12.37125 25.319375 12.7425 24.63875 13.125 23.9375 C14.20579336 21.89863452 14.20579336 21.89863452 14 19 C13.62488281 19.54269531 13.24976563 20.08539063 12.86328125 20.64453125 C7.39919527 28.28324087 7.39919527 28.28324087 3 30 C-0.8125 30.1875 -0.8125 30.1875 -4 30 C-4 29.34 -4 28.68 -4 28 C-5.32 28 -6.64 28 -8 28 C-7.67 30.31 -7.34 32.62 -7 35 C-7.29003906 34.41863281 -7.58007812 33.83726563 -7.87890625 33.23828125 C-8.24886719 32.49964844 -8.61882812 31.76101562 -9 31 C-9.29777344 30.37480469 -9.59554687 29.74960937 -9.90234375 29.10546875 C-14.4935375 20.59876637 -23.22057691 16.31667094 -32 13 C-28.52176885 11.84058962 -26.54104422 12.29179116 -23 13 C-22.401875 12.01 -21.80375 11.02 -21.1875 10 C-20.1046875 8.515 -20.1046875 8.515 -19 7 C-18.01 7 -17.02 7 -16 7 C-16.33 8.98 -16.66 10.96 -17 13 C-16.11248047 12.94779297 -16.11248047 12.94779297 -15.20703125 12.89453125 C-10.28079723 12.72576956 -6.99620364 12.75308454 -3 16 C-2.67 16.66 -2.34 17.32 -2 18 C0.02463255 18.65213292 0.02463255 18.65213292 2 19 C4.02055843 14.60748167 5.40895235 10.84659077 6 6 C5.34 5.67 4.68 5.34 4 5 C3.67 8.3 3.34 11.6 3 15 C2.01 15.33 1.02 15.66 0 16 C0 10.72 0 5.44 0 0 Z " fill="#D9CB75" transform="translate(129,34)"/>
<path d="M0 0 C-1.32 0.99 -2.64 1.98 -4 3 C-3.73974514 6.6852088 -3.56613753 8.4683583 -0.8203125 11.046875 C0.06914063 11.60890625 0.95859375 12.1709375 1.875 12.75 C2.75929687 13.32234375 3.64359375 13.8946875 4.5546875 14.484375 C5.36164063 14.98453125 6.16859375 15.4846875 7 16 C7.99 16.66 8.98 17.32 10 18 C9.505 20.475 9.505 20.475 9 23 C7.35 23 5.7 23 4 23 C3.731875 23.61875 3.46375 24.2375 3.1875 24.875 C2 27 2 27 -1 29 C-3.66666667 29 -6.33333333 29 -9 29 C-9.99 29.66 -10.98 30.32 -12 31 C-16.47943509 31.3257771 -19.07194234 30.96402883 -23 29 C-24.19625 29 -25.3925 29 -26.625 29 C-27.73875 29 -28.8525 29 -30 29 C-30.66 28.34 -31.32 27.68 -32 27 C-34.31765729 26.28072705 -36.65095874 25.6090107 -39 25 C-39.8125 22.8125 -39.8125 22.8125 -40 20 C-37.58235421 16.99625827 -35.08929624 15.05893552 -31.875 12.9375 C-29.16585474 11.11177167 -27.52559421 9.87170676 -26 7 C-26.16666667 4.91666667 -26.16666667 4.91666667 -27 3 C-27.33 2.01 -27.66 1.02 -28 0 C-26.71609375 0.24169922 -26.71609375 0.24169922 -25.40625 0.48828125 C-22.05458351 0.99179996 -18.88692103 1.16733976 -15.5 1.1875 C-13.87578125 1.20876953 -13.87578125 1.20876953 -12.21875 1.23046875 C-8.94606883 1.12987232 -8.94606883 1.12987232 -5.78125 -0.07421875 C-3 -1 -3 -1 0 0 Z " fill="#F9F7EA" transform="translate(95,113)"/>
<path d="M0 0 C0.33 0 0.66 0 1 0 C1.22084624 6.09781001 1.01167675 11.21642935 -1 17 C-1.7425 16.505 -1.7425 16.505 -2.5 16 C-6.09090894 14.56363642 -9.14456127 14.87148538 -13 15 C-13 15.66 -13 16.32 -13 17 C-12.01 17.33 -11.02 17.66 -10 18 C-10 18.66 -10 19.32 -10 20 C-11.32 20 -12.64 20 -14 20 C-13.67 20.99 -13.34 21.98 -13 23 C-10.08347826 23.16681109 -10.08347826 23.16681109 -7 23 C-6.34 22.34 -5.68 21.68 -5 21 C-4.30752943 27.34764688 -5.40830679 30.62020437 -9.1484375 35.76953125 C-11.63827161 38.76888837 -14.36466651 41.45618687 -17.171875 44.15625 C-22.58721288 49.61787282 -24.95567239 55.51565213 -26 63 C-30.21422242 60.11658466 -31.76075855 57.95696581 -33 53 C-34.98 52.67 -36.96 52.34 -39 52 C-35.86650268 50.95550089 -35.01031744 51.06576355 -32 52 C-32 51.34 -32 50.68 -32 50 C-35.3 49.34 -38.6 48.68 -42 48 C-41.67 48.66 -41.34 49.32 -41 50 C-42.32 49.34 -43.64 48.68 -45 48 C-45 47.34 -45 46.68 -45 46 C-44.31035156 45.79246094 -43.62070313 45.58492187 -42.91015625 45.37109375 C-33.48795838 42.28206043 -26.55606665 38.35526555 -21.4375 29.625 C-17.89995448 21.93595479 -18.51516297 14.251208 -19 6 C-19 5.01 -19 4.02 -19 3 C-18.34 3 -17.68 3 -17 3 C-17 3.66 -17 4.32 -17 5 C-11.0163872 5.31492699 -7.3285657 4.77085416 -2 2 C-1.34 1.34 -0.68 0.68 0 0 Z " fill="#E0D48A" transform="translate(145,70)"/>
<path d="M0 0 C0.72574219 0.26039062 1.45148438 0.52078125 2.19921875 0.7890625 C4 2 4 2 4.77734375 4.23046875 C5.02705344 7.3365068 4.86913709 10.21205834 4.5625 13.3125 C4.40974609 14.91544922 4.40974609 14.91544922 4.25390625 16.55078125 C4.17011719 17.35902344 4.08632812 18.16726562 4 19 C4.66 18.67 5.32 18.34 6 18 C6.43040224 15.71051742 6.43040224 15.71051742 6.5625 13.0625 C6.90619765 8.18760469 6.90619765 8.18760469 8 6 C9.5703125 7.6484375 9.5703125 7.6484375 11 10 C10.7421875 12.7265625 10.7421875 12.7265625 9.875 15.625 C9.60429687 16.58664063 9.33359375 17.54828125 9.0546875 18.5390625 C8 21 8 21 5 23 C2.093479 21.6970768 0.19164592 20.29126619 -2 18 C-4.29629994 16.85185003 -6.07698086 16.69230191 -8.625 16.4375 C-9.44226563 16.35371094 -10.25953125 16.26992188 -11.1015625 16.18359375 C-12.04128906 16.09271484 -12.04128906 16.09271484 -13 16 C-12.67 14.02 -12.34 12.04 -12 10 C-15.82946843 11.45255699 -17.12050295 13.42895561 -19 17 C-23.10390946 16.33649368 -27.18618264 15.62811129 -31.25 14.75 C-32.80460937 14.43289062 -32.80460937 14.43289062 -34.390625 14.109375 C-37 13 -37 13 -38.296875 10.640625 C-38.64492187 9.33351563 -38.64492187 9.33351563 -39 8 C-39.20625 7.236875 -39.4125 6.47375 -39.625 5.6875 C-39.74875 5.130625 -39.8725 4.57375 -40 4 C-38.39805929 3.01719585 -36.79336258 2.03888283 -35.1875 1.0625 C-34.29417969 0.51722656 -33.40085937 -0.02804688 -32.48046875 -0.58984375 C-23.55113691 -5.66620406 -9.15086933 -3.93469332 0 0 Z " fill="#F6F4E0" transform="translate(125,31)"/>
<path d="M0 0 C3.1521363 0.06247477 5.20893007 0.50429272 7.8125 2.3125 C10.7735504 5.93978674 10.97155334 7.63636108 10.640625 12.1640625 C9.82107431 17.6862731 8.35473526 20.58540444 4.3125 24.375 C3.07737921 26.50809192 3.07737921 26.50809192 2.3125 28.375 C1.03375 28.33375 -0.245 28.2925 -1.5625 28.25 C-3.70621492 28.13287127 -3.70621492 28.13287127 -5.6875 28.375 C-6.3475 29.035 -7.0075 29.695 -7.6875 30.375 C-8.6775 30.045 -9.6675 29.715 -10.6875 29.375 C-12.35371616 29.33625079 -14.02144172 29.3299714 -15.6875 29.375 C-18.58559853 23.17772681 -21.08928826 17.30148319 -19.6875 10.375 C-17.8125 7.5625 -17.8125 7.5625 -15.6875 5.375 C-14.97864106 4.06361096 -14.29293548 2.73722983 -13.6875 1.375 C-10.6875 1.375 -7.6875 1.375 -4.6875 1.375 C-3.6875 0.375 -3.6875 0.375 0 0 Z " fill="#C7AF12" transform="translate(92.6875,76.625)"/>
<path d="M0 0 C2.34765625 2.109375 2.34765625 2.109375 4 4 C3.236875 3.690625 2.47375 3.38125 1.6875 3.0625 C-2.94823337 1.2297682 -6.87497124 0.78581163 -11.8125 0.75 C-12.86147461 0.7190625 -12.86147461 0.7190625 -13.93164062 0.6875 C-18.70974321 0.65174245 -21.97150878 1.42127208 -26 4 C-27.29675513 7.07979343 -27.13210892 8.55286212 -26.1875 11.75 C-25.20530756 14.13996162 -25.20530756 14.13996162 -23 15 C-25.375 14.75 -25.375 14.75 -28 14 C-29.3125 11.9375 -29.3125 11.9375 -30 10 C-30.66 10 -31.32 10 -32 10 C-31.67 11.65 -31.34 13.3 -31 15 C-30.41992188 15.03738281 -29.83984375 15.07476562 -29.2421875 15.11328125 C-24.18321136 15.53903667 -20.45720842 16.37138991 -16 19 C-16.825 18.2575 -17.65 17.515 -18.5 16.75 C-21 14 -21 14 -21 10 C-20.01 10 -19.02 10 -18 10 C-17.5875 10.94875 -17.175 11.8975 -16.75 12.875 C-14.9959869 16.00716624 -14.29148243 16.86500606 -11 18 C-13.58937338 20.04992059 -16.29320546 21.89230354 -19.0625 23.6875 C-19.73410156 24.12449219 -20.40570313 24.56148437 -21.09765625 25.01171875 C-23 26 -23 26 -26 26 C-26.33 25.67 -26.66 25.34 -27 25 C-29.67058851 24.85884839 -32.32432238 24.95752893 -35 25 C-32.03312999 23.35173889 -29.34373475 22.55728913 -26 22 C-27.32 21.67 -28.64 21.34 -30 21 C-30 20.34 -30 19.68 -30 19 C-29.34 18.67 -28.68 18.34 -28 18 C-30.47266765 18.34444881 -30.47266765 18.34444881 -33 19 C-33.33 19.66 -33.66 20.32 -34 21 C-34.825 21.28875 -35.65 21.5775 -36.5 21.875 C-39.18259554 22.72882071 -39.18259554 22.72882071 -39.8125 25.125 C-39.874375 25.74375 -39.93625 26.3625 -40 27 C-42.53910197 26.61479436 -43.72751123 26.29902057 -45.484375 24.37109375 C-46.11085938 23.41396484 -46.11085938 23.41396484 -46.75 22.4375 C-47.17796875 21.79683594 -47.6059375 21.15617187 -48.046875 20.49609375 C-48.36140625 20.00238281 -48.6759375 19.50867188 -49 19 C-49.66 19.33 -50.32 19.66 -51 20 C-49.32785992 12.97701165 -46.82014282 8.37055669 -41 4 C-28.32694428 -3.78133877 -14.0532802 -5.59625422 0 0 Z " fill="#F4F1D9" transform="translate(72,30)"/>
<path d="M0 0 C2.4375 2.0625 2.4375 2.0625 3.375 4.25 C3.395625 4.848125 3.41625 5.44625 3.4375 6.0625 C3.1075 6.3925 2.7775 6.7225 2.4375 7.0625 C-0.31387602 7.05340454 -3.0523616 6.92944887 -5.80078125 6.8046875 C-9.01198559 7.10446047 -10.11734486 8.05861489 -12.5625 10.0625 C-15.67439466 10.31145157 -17.75334526 10.46707737 -20.5625 9.0625 C-22.29105828 9.01663444 -24.02125427 9.02434837 -25.75 9.0625 C-30.13385364 9.10834422 -34.22676226 8.75621804 -38.5625 8.0625 C-40.22878955 8.02704703 -41.89659803 8.01201812 -43.5625 8.0625 C-42.31512612 3.07300449 -40.92666615 0.81382214 -36.5625 -1.9375 C-25.43789663 -7.70581286 -10.66902326 -6.36618605 0 0 Z " fill="#CDB942" transform="translate(101.5625,52.9375)"/>
<path d="M0 0 C1.51652558 0.80286649 3.02419923 1.62452497 4.5 2.5 C3.8493582 6.01346571 2.62020872 8.61989346 0.5 11.5 C-3.97404218 14.05048902 -9.28947021 15.95217637 -14.5 15.5625 C-17.5 14.5 -17.5 14.5 -19.4375 12.0625 C-20.5 9.5 -20.5 9.5 -20.5 7.5 C-21.49 7.5 -22.48 7.5 -23.5 7.5 C-22.62527407 12.45514502 -22.62527407 12.45514502 -19.375 15.9375 C-18.75625 16.123125 -18.1375 16.30875 -17.5 16.5 C-20.5 16.5 -20.5 16.5 -22.39453125 15.53515625 C-24.75462226 14.37481466 -26.57745719 14.14026366 -29.1875 13.9375 C-33.40035587 13.59964413 -33.40035587 13.59964413 -34.5 12.5 C-34.54063832 10.83382885 -34.542721 9.16611905 -34.5 7.5 C-33.84 7.5 -33.18 7.5 -32.5 7.5 C-31 9.5 -31 9.5 -29.5 11.5 C-28.84 11.5 -28.18 11.5 -27.5 11.5 C-28.2734375 10.4171875 -28.2734375 10.4171875 -29.0625 9.3125 C-30.5 6.5 -30.5 6.5 -30.4375 3.875 C-29.29486864 0.98033388 -28.15791615 0.06348009 -25.5 -1.5 C-17.46737253 -4.17754249 -7.61867051 -3.51173094 0 0 Z " fill="#F8F6E7" transform="translate(74.5,32.5)"/>
<path d="M0 0 C0.99 0 1.98 0 3 0 C2.96519531 0.67804688 2.93039063 1.35609375 2.89453125 2.0546875 C2.69456188 8.92982497 3.64787981 14.54567018 6 21 C7.134375 20.814375 8.26875 20.62875 9.4375 20.4375 C11.2009375 20.2209375 11.2009375 20.2209375 13 20 C13.33 20.33 13.66 20.66 14 21 C14.66 20.34 15.32 19.68 16 19 C18.68839385 18.73008094 21.29141936 18.91262643 24 19 C24.433125 18.030625 24.86625 17.06125 25.3125 16.0625 C27 13 27 13 30 12 C29.64192708 13.98567708 29.28385417 15.97135417 28.92578125 17.95703125 C28.79472176 20.12243264 28.79472176 20.12243264 30.48046875 21.76171875 C30.98191406 22.17035156 31.48335937 22.57898438 32 23 C27.56447919 26.45970623 24.72302242 28.4912869 19 29 C18.41089844 29.16757813 17.82179687 29.33515625 17.21484375 29.5078125 C12.26380481 30.60804338 7.04252121 30.11515373 2 30 C1.236875 30.00644531 0.47375 30.01289062 -0.3125 30.01953125 C-7.76472446 29.70401368 -13.06731111 24.07273369 -18 19 C-17.67 18.34 -17.34 17.68 -17 17 C-16.236875 17.825 -15.47375 18.65 -14.6875 19.5 C-12.24565858 22.34055197 -12.24565858 22.34055197 -9 22 C-9.33 19.69 -9.66 17.38 -10 15 C-9.34 15 -8.68 15 -8 15 C-7.67 14.01 -7.34 13.02 -7 12 C-5.35 15.3 -3.7 18.6 -2 22 C-0.68 21.67 0.64 21.34 2 21 C1.505 19.88625 1.01 18.7725 0.5 17.625 C-1.66930421 11.88452989 -1.94460819 5.83382458 0 0 Z " fill="#C6AF0F" transform="translate(71,85)"/>
<path d="M0 0 C0.66 0 1.32 0 2 0 C2.33 2.64 2.66 5.28 3 8 C3.95261719 8.29132813 4.90523437 8.58265625 5.88671875 8.8828125 C17.43197351 12.65608179 17.43197351 12.65608179 20.375 15.625 C23.24123082 21.57794093 22.70051397 27.41685475 21 33.6875 C20.67 34.450625 20.34 35.21375 20 36 C19.34 36 18.68 36 18 36 C17.71125 36.598125 17.4225 37.19625 17.125 37.8125 C16 40 16 40 14 43 C11.5625 42.625 11.5625 42.625 9 42 C7.51243233 39.02486465 8.60196716 37.1125248 9.4375 33.9375 C10.76244605 28.36656404 11.7241578 23.7027427 11 18 C8.86828449 15.2687395 7.44027376 14.21576086 3.9921875 13.69921875 C0.16039343 13.56489387 -1.77690976 13.85127317 -5 16 C-5.99 15.34 -6.98 14.68 -8 14 C-10.23067232 14.01163572 -10.23067232 14.01163572 -12.5625 14.4375 C-16.80225282 15.09887359 -16.80225282 15.09887359 -19 14 C-18.01 11.03 -17.02 8.06 -16 5 C-15.67 5 -15.34 5 -15 5 C-14.87625 5.969375 -14.7525 6.93875 -14.625 7.9375 C-14.315625 9.4534375 -14.315625 9.4534375 -14 11 C-13.34 11.33 -12.68 11.66 -12 12 C-12.04125 10.906875 -12.0825 9.81375 -12.125 8.6875 C-12 5 -12 5 -10 2 C-9.34 5.3 -8.68 8.6 -8 12 C-7.34 12 -6.68 12 -6 12 C-6 9.69 -6 7.38 -6 5 C-5.34 5 -4.68 5 -4 5 C-3.71125 5.969375 -3.4225 6.93875 -3.125 7.9375 C-2.35785318 11.10664203 -2.35785318 11.10664203 0 12 C-0.33 11.01 -0.66 10.02 -1 9 C-1.17812624 6.3071504 -1.08727698 3.70558632 -1 1 C-0.67 0.67 -0.34 0.34 0 0 Z " fill="#F5F2DC" transform="translate(91,64)"/>
<path d="M0 0 C2.5 1.5625 2.5 1.5625 3.8125 4.8125 C5.12118455 11.58026868 6.40578315 20.70382527 2.5 26.5625 C1.51 26.2325 0.52 25.9025 -0.5 25.5625 C-2.16621616 25.52375079 -3.83394172 25.5174714 -5.5 25.5625 C-8.36896725 19.42752092 -11.0570641 13.41881588 -9.5 6.5625 C-7.31404641 2.72296528 -4.714553 -0.82504678 0 0 Z " fill="#FBFAF2" transform="translate(82.5,80.4375)"/>
<path d="M0 0 C-0.33 1.155 -0.66 2.31 -1 3.5 C-2.95987414 11.60933432 -1.99883723 16.89162942 1.22265625 24.484375 C2.05583561 27.18069413 1.96786875 28.39466776 1 31 C-4.44492122 29.96116635 -8.14511665 26.57412383 -11.33984375 22.140625 C-14.10092911 17.22766172 -14.90398097 12.57822402 -14 7 C-11.10942128 1.21884257 -6.1711601 -0.43054605 0 0 Z " fill="#F7F5E4" transform="translate(61,77)"/>
<path d="M0 0 C0.33 0 0.66 0 1 0 C1.22084624 6.09781001 1.01167675 11.21642935 -1 17 C-1.495 16.67 -1.99 16.34 -2.5 16 C-6.09090894 14.56363642 -9.14456127 14.87148538 -13 15 C-13 15.66 -13 16.32 -13 17 C-12.01 17.33 -11.02 17.66 -10 18 C-10 18.66 -10 19.32 -10 20 C-11.32 20 -12.64 20 -14 20 C-13.67 20.99 -13.34 21.98 -13 23 C-10.08347826 23.16681109 -10.08347826 23.16681109 -7 23 C-6.34 22.34 -5.68 21.68 -5 21 C-5 22.98 -5 24.96 -5 27 C-11.625 27.125 -11.625 27.125 -15 26 C-15 26.66 -15 27.32 -15 28 C-12.36 28 -9.72 28 -7 28 C-7.99 30.475 -7.99 30.475 -9 33 C-16.75 31.125 -16.75 31.125 -19 30 C-19.33 30.99 -19.66 31.98 -20 33 C-20.33 32.34 -20.66 31.68 -21 31 C-20.43304654 29.41551427 -19.79431355 27.85653712 -19.125 26.3125 C-16.40498321 19.25921509 -16.20224137 12.49304259 -16 5 C-14.92363281 5.02835937 -13.84726563 5.05671875 -12.73828125 5.0859375 C-7.58688667 4.96751464 -3.73591936 3.73591936 0 0 Z " fill="#F2EFD3" transform="translate(145,70)"/>
<path d="M0 0 C3.96 1.98 3.96 1.98 8 4 C6.68 4.33 5.36 4.66 4 5 C4.33 5.66 4.66 6.32 5 7 C7.37374861 7.33425735 7.37374861 7.33425735 10 7 C11.84315671 5.0995533 11.84315671 5.0995533 13 3 C13.33 3.99 13.66 4.98 14 6 C14.66 6 15.32 6 16 6 C17.3671875 7.79296875 17.3671875 7.79296875 18.875 10.1875 C21.08618598 13.62350959 23.37004693 16.86428673 26 20 C24.68 20 23.36 20 22 20 C18.78170896 21.92293518 18.78170896 21.92293518 16 24 C17.0209375 25.6396875 17.0209375 25.6396875 18.0625 27.3125 C19.22265625 29.17578125 19.22265625 29.17578125 20 31 C19.67 31.99 19.34 32.98 19 34 C18.6596875 33.38253906 18.319375 32.76507813 17.96875 32.12890625 C15.29605347 27.45879556 12.59923475 23.3985903 8.875 19.5 C3.6038208 13.8155926 1.37654579 7.53759055 0 0 Z " fill="#FAFAF0" transform="translate(21,90)"/>
<path d="M0 0 C2.5654594 2.5654594 2.54046087 4.47686668 3 8 C2.34 7.34 1.68 6.68 1 6 C0.505 7.051875 0.01 8.10375 -0.5 9.1875 C-2.99573274 13.63641488 -6.57977454 15.67187154 -11 18 C-8.99759451 17.68143549 -6.99788438 17.34578768 -5 17 C-3.88625 16.87625 -3.88625 16.87625 -2.75 16.75 C-0.71946265 16.11631723 -0.71946265 16.11631723 0.0625 13.5625 C0.371875 12.716875 0.68125 11.87125 1 11 C1.99 10.34 2.98 9.68 4 9 C3.88276202 14.97913718 3.88276202 14.97913718 1.7265625 17.47265625 C-2.98378286 21.08834389 -8.30126968 22.58965024 -14 24 C-14 23.34 -14 22.68 -14 22 C-17.24732932 23.62366466 -17.70155136 26.75387839 -19 30 C-19.66 30 -20.32 30 -21 30 C-20.98839844 28.80761719 -20.97679688 27.61523438 -20.96484375 26.38671875 C-20.95546408 24.82031406 -20.94636407 23.25390769 -20.9375 21.6875 C-20.92912109 20.90181641 -20.92074219 20.11613281 -20.91210938 19.30664062 C-20.90888672 18.54931641 -20.90566406 17.79199219 -20.90234375 17.01171875 C-20.89710693 16.31522217 -20.89187012 15.61872559 -20.88647461 14.90112305 C-20.93104009 12.77502032 -20.93104009 12.77502032 -22 10 C-19.525 10.495 -19.525 10.495 -17 11 C-17 11.66 -17 12.32 -17 13 C-11.18580466 12.64402886 -7.14489614 11.23057874 -3 7 C-1.64084466 4.68031086 -0.85751577 2.57254731 0 0 Z " fill="#F9F8ED" transform="translate(142,51)"/>
<path d="M0 0 C2.125 1.4375 2.125 1.4375 4.5625 4.4375 C7.12241129 7.43446932 8.44398952 8.34314553 12.125 9.4375 C12.785 9.7675 13.445 10.0975 14.125 10.4375 C13.795 9.1175 13.465 7.7975 13.125 6.4375 C14.115 6.7675 15.105 7.0975 16.125 7.4375 C15.795 9.0875 15.465 10.7375 15.125 12.4375 C13.475 12.4375 11.825 12.4375 10.125 12.4375 C9.856875 13.05625 9.58875 13.675 9.3125 14.3125 C8.125 16.4375 8.125 16.4375 5.125 18.4375 C3.1875 18.6328125 3.1875 18.6328125 1.125 18.5625 C0.444375 18.54445312 -0.23625 18.52640625 -0.9375 18.5078125 C-1.576875 18.48460937 -2.21625 18.46140625 -2.875 18.4375 C-3.865 18.4375 -4.855 18.4375 -5.875 18.4375 C-6.205 17.4475 -6.535 16.4575 -6.875 15.4375 C-6.545 14.7775 -6.215 14.1175 -5.875 13.4375 C-5.64549681 11.233136 -5.46424067 9.02357827 -5.3125 6.8125 C-5.22871094 5.62398437 -5.14492187 4.43546875 -5.05859375 3.2109375 C-4.99800781 2.29570313 -4.93742187 1.38046875 -4.875 0.4375 C-1.875 -0.5625 -1.875 -0.5625 0 0 Z " fill="#CAB426" transform="translate(88.875,123.5625)"/>
<path d="M0 0 C1.32 0 2.64 0 4 0 C2.62712658 3.69876091 0.93644547 6.9514476 -1.125 10.3125 C-1.66382812 11.19550781 -2.20265625 12.07851562 -2.7578125 12.98828125 C-3.16773437 13.65214844 -3.57765625 14.31601563 -4 15 C-0.42398055 13.25172382 1.47135958 12.23543073 3.06640625 8.5078125 C3.7967504 6.01688028 4.44824545 3.53613496 5 1 C5.99 1 6.98 1 8 1 C7.835 1.66 7.67 2.32 7.5 3 C6.67175064 7.96949619 6.16143684 12.24664066 8.375 16.875 C9.97108919 19.05919833 9.97108919 19.05919833 12 21 C7.56464291 21.17059066 4.90556617 20.95278309 1 19 C-0.19625 19 -1.3925 19 -2.625 19 C-3.73875 19 -4.8525 19 -6 19 C-6.66 18.34 -7.32 17.68 -8 17 C-10.31765729 16.28072705 -12.65095874 15.6090107 -15 15 C-15.8125 12.8125 -15.8125 12.8125 -16 10 C-13.7761796 7.20434007 -12.08899084 5.3826184 -8.6875 4.1875 C-8.130625 4.125625 -7.57375 4.06375 -7 4 C-10.75 7.875 -10.75 7.875 -13 9 C-13.65555119 11.52733235 -13.65555119 11.52733235 -14 14 C-7.95381623 10.94621682 -4.71269497 7.72612359 -1.421875 1.79296875 C-0.95265625 1.20128906 -0.4834375 0.60960938 0 0 Z " fill="#D1BF4E" transform="translate(71,123)"/>
<path d="M0 0 C2.375 0.625 2.375 0.625 5 2 C6.1875 4.4375 6.1875 4.4375 7 8 C7.18433594 8.73992188 7.36867187 9.47984375 7.55859375 10.2421875 C10.55120903 23.82246927 10.93437565 41.54827329 4 54 C1.61312357 50.34896309 2.07895718 48.00400942 2.875 43.8125 C4.94144157 30.69331501 4.57791756 18.97911604 0.875 6.1953125 C0 3 0 3 0 0 Z " fill="#B5A009" transform="translate(150,52)"/>
<path d="M0 0 C1.875 1.4375 1.875 1.4375 3 4 C3.20710439 10.35551594 1.42086904 17.16211484 -1 23 C-3 24 -3 24 -8 24 C-7.67 16.41 -7.34 8.82 -7 1 C-4.4254716 -0.2872642 -2.85291355 -0.34791629 0 0 Z " fill="#FCFBF5" transform="translate(97,81)"/>
<path d="M0 0 C1.35907136 0.96472941 2.69997828 1.95706122 4 3 C3.01 3 2.02 3 1 3 C1.495 3.99 1.495 3.99 2 5 C2.06996014 6.70702735 2.08440154 8.41668003 2.0625 10.125 C2.05347656 11.03507812 2.04445312 11.94515625 2.03515625 12.8828125 C2.02355469 13.58148438 2.01195312 14.28015625 2 15 C0.68 15.33 -0.64 15.66 -2 16 C-1.67 14.02 -1.34 12.04 -1 10 C-1.66 10 -2.32 10 -3 10 C-3.3403125 10.9590625 -3.3403125 10.9590625 -3.6875 11.9375 C-5 14 -5 14 -7.625 14.75 C-8.800625 14.87375 -8.800625 14.87375 -10 15 C-9.319375 14.113125 -8.63875 13.22625 -7.9375 12.3125 C-5.80332596 9.25184193 -5.80332596 9.25184193 -5.875 6.3125 C-7.53865965 2.89275517 -9.4824982 2.30277844 -13 1 C-20.05115787 -0.43634697 -26.93876948 -0.4122461 -34 1 C-25.49541415 -5.74501636 -9.56811285 -4.58590024 0 0 Z " fill="#C9B31F" transform="translate(125,31)"/>
<path d="M0 0 C-0.03480469 1.7015625 -0.03480469 1.7015625 -0.0703125 3.4375 C-0.08908814 4.95832668 -0.1072864 6.47916057 -0.125 8 C-0.14175781 8.74378906 -0.15851563 9.48757812 -0.17578125 10.25390625 C-0.22144715 15.50548443 0.54287549 19.9516946 2 25 C1.01 25 0.02 25 -1 25 C-1.33 25.66 -1.66 26.32 -2 27 C-7.14987097 19.25553755 -10.31887987 12.52524352 -9 3 C-6.28298706 -1.32709469 -4.67141415 -1.15429637 0 0 Z " fill="#FCFCF6" transform="translate(71,81)"/>
<path d="M0 0 C0.66 -0.33 1.32 -0.66 2 -1 C4.1640625 -0.22265625 4.1640625 -0.22265625 6.625 0.9375 C7.44226563 1.31777344 8.25953125 1.69804688 9.1015625 2.08984375 C9.72804688 2.39019531 10.35453125 2.69054687 11 3 C8.25781923 6.07456632 6.29585403 7.8806203 2.4375 9.4375 C-1.64899375 11.29499716 -2.71019937 13.23818468 -5 17 C-5.99 17.33 -6.98 17.66 -8 18 C-8.33 15.69 -8.66 13.38 -9 11 C-8.01 12.32 -7.02 13.64 -6 15 C-5.34 13.35 -4.68 11.7 -4 10 C-4.33 10 -4.66 10 -5 10 C-5 10.99 -5 11.98 -5 13 C-5.66 13 -6.32 13 -7 13 C-7.6708712 11.3767313 -8.33657029 9.75132422 -9 8.125 C-9.37125 7.22007813 -9.7425 6.31515625 -10.125 5.3828125 C-11 3 -11 3 -11 1 C-7.20839464 -1.57829164 -4.35627067 -0.72604511 0 0 Z " fill="#C6AE0E" transform="translate(50,113)"/>
<path d="M0 0 C2.34765625 2.109375 2.34765625 2.109375 4 4 C3.236875 3.690625 2.47375 3.38125 1.6875 3.0625 C-2.94823337 1.2297682 -6.87497124 0.78581163 -11.8125 0.75 C-12.86147461 0.7190625 -12.86147461 0.7190625 -13.93164062 0.6875 C-18.70974321 0.65174245 -21.97150878 1.42127208 -26 4 C-27.29675513 7.07979343 -27.13210892 8.55286212 -26.1875 11.75 C-25.20530756 14.13996162 -25.20530756 14.13996162 -23 15 C-25.375 14.75 -25.375 14.75 -28 14 C-29.3125 11.9375 -29.3125 11.9375 -30 10 C-30.66 10 -31.32 10 -32 10 C-31.67 11.98 -31.34 13.96 -31 16 C-32.32 16 -33.64 16 -35 16 C-35.08086147 14.20906809 -35.13912702 12.41710372 -35.1875 10.625 C-35.23970703 9.12839844 -35.23970703 9.12839844 -35.29296875 7.6015625 C-35.19628906 6.74304687 -35.09960938 5.88453125 -35 5 C-34.01 4.34 -33.02 3.68 -32 3 C-32 4.65 -32 6.3 -32 8 C-31.67 5.69 -31.34 3.38 -31 1 C-31.94875 1.515625 -32.8975 2.03125 -33.875 2.5625 C-34.90625 3.036875 -35.9375 3.51125 -37 4 C-37.66 3.67 -38.32 3.34 -39 3 C-26.46969656 -3.71266256 -13.59881546 -5.41527867 0 0 Z " fill="#C8B21D" transform="translate(72,30)"/>
<path d="M0 0 C0.99 0 1.98 0 3 0 C2.67 1.98 2.34 3.96 2 6 C2.59167969 5.96519531 3.18335937 5.93039063 3.79296875 5.89453125 C7.52816429 5.76657186 10.44878256 5.80477716 14 7.0625 C16.81770554 9.79215224 16.78386644 12.18164046 17 16 C11.62007164 15.66009167 7.46726453 15.31442207 3 12 C3.66 10.68 4.32 9.36 5 8 C4.28714844 8.10699219 3.57429688 8.21398438 2.83984375 8.32421875 C-3.48337692 9.11568513 -7.39803461 9.11220299 -13 6 C-9.52176885 4.84058962 -7.54104422 5.29179116 -4 6 C-3.401875 5.01 -2.80375 4.02 -2.1875 3 C-1.1046875 1.515 -1.1046875 1.515 0 0 Z " fill="#CEBB3B" transform="translate(110,41)"/>
<path d="M0 0 C0 1.32 0 2.64 0 4 C-0.67546875 3.96519531 -1.3509375 3.93039063 -2.046875 3.89453125 C-2.93890625 3.86746094 -3.8309375 3.84039062 -4.75 3.8125 C-6.07257813 3.76029297 -6.07257813 3.76029297 -7.421875 3.70703125 C-10.47788945 4.05430562 -11.64475714 5.10299477 -14 7 C-17.11189466 7.24895157 -19.19084526 7.40457737 -22 6 C-23.72855828 5.95413444 -25.45875427 5.96184837 -27.1875 6 C-31.57135364 6.04584422 -35.66426226 5.69371804 -40 5 C-41.66628955 4.96454703 -43.33409803 4.94951812 -45 5 C-44.34 3.35 -43.68 1.7 -43 0 C-39.87709365 0.48578543 -37.00419641 0.9986012 -34 2 C-30.81744567 2.25414227 -27.62924535 2.238138 -24.4375 2.25 C-23.08301758 2.25592163 -23.08301758 2.25592163 -21.70117188 2.26196289 C-16.0493115 2.21248361 -11.15523188 1.74251318 -5.875 -0.44140625 C-3.57719297 -1.12596126 -2.24122812 -0.75541394 0 0 Z " fill="#FBFBF3" transform="translate(103,56)"/>
<path d="M0 0 C2.37767969 4.23726575 2.11472912 7.37175759 1 12 C-3.11182109 25.11182109 -3.11182109 25.11182109 -6 28 C-6.33 26.68 -6.66 25.36 -7 24 C-7.33 24.33 -7.66 24.66 -8 25 C-10.9375 25.1875 -10.9375 25.1875 -14 25 C-14.66 24.34 -15.32 23.68 -16 23 C-15.505 21.515 -15.505 21.515 -15 20 C-13.68 20.33 -12.36 20.66 -11 21 C-11 20.34 -11 19.68 -11 19 C-12.32 18.67 -13.64 18.34 -15 18 C-15.33 16.68 -15.66 15.36 -16 14 C-15.01 14.495 -15.01 14.495 -14 15 C-12.50066785 15.04475618 -10.99949427 15.0389479 -9.5 15 C-5.22222222 14.88888889 -5.22222222 14.88888889 -3 16 C-1.35199144 12.33552568 -0.66419027 9.18796534 -0.375 5.1875 C-0.30023438 4.21167969 -0.22546875 3.23585938 -0.1484375 2.23046875 C-0.09945312 1.49441406 -0.05046875 0.75835937 0 0 Z " fill="#E6DDA5" transform="translate(146,69)"/>
<path d="M0 0 C2.97 0 5.94 0 9 0 C9 0.33 9 0.66 9 1 C6.69 1.33 4.38 1.66 2 2 C2 2.66 2 3.32 2 4 C3.65 4 5.3 4 7 4 C6.67 4.66 6.34 5.32 6 6 C3.4375 6.625 3.4375 6.625 1 7 C2.98 7 4.96 7 7 7 C6.39254603 11.85963179 4.27241033 15.7405518 2 20 C0.875 16.25 0.875 16.25 2 14 C0.906875 13.71125 -0.18625 13.4225 -1.3125 13.125 C-5 12 -5 12 -8 10 C-7.67 8.35 -7.34 6.7 -7 5 C-5.824375 4.87625 -5.824375 4.87625 -4.625 4.75 C-3.75875 4.5025 -2.8925 4.255 -2 4 C-1.34 2.68 -0.68 1.36 0 0 Z " fill="#C8B21C" transform="translate(40,47)"/>
<path d="M0 0 C0.763125 0.763125 1.52625 1.52625 2.3125 2.3125 C6.56436257 5.9188991 11.66363817 6.83207739 17 8 C17 8.66 17 9.32 17 10 C12.14396816 11.51750995 8.72780763 10.49713908 4 9 C3.67 8.34 3.34 7.68 3 7 C3.49756092 9.75641416 3.49756092 9.75641416 5 12 C7.01964199 12.07244053 9.04167124 12.08377188 11.0625 12.0625 C12.16722656 12.05347656 13.27195312 12.04445313 14.41015625 12.03515625 C15.26480469 12.02355469 16.11945312 12.01195313 17 12 C16.24609375 13.9453125 16.24609375 13.9453125 15 16 C13.16015625 16.6796875 13.16015625 16.6796875 11.0625 16.875 C10.37285156 16.95492187 9.68320312 17.03484375 8.97265625 17.1171875 C7 17 7 17 4 15 C4 15.66 4 16.32 4 17 C3.34 17 2.68 17 2 17 C-1.19078947 9.12938596 -1.19078947 9.12938596 -0.5625 4.3125 C-0.46066406 3.50425781 -0.35882813 2.69601563 -0.25390625 1.86328125 C-0.17011719 1.24839844 -0.08632812 0.63351563 0 0 Z " fill="#F6F4E2" transform="translate(16,67)"/>
<path d="M0 0 C0.99 0 1.98 0 3 0 C3.4125 0.94875 3.825 1.8975 4.25 2.875 C6.0040131 6.00716624 6.70851757 6.86500606 10 8 C7.41062662 10.04992059 4.70679454 11.89230354 1.9375 13.6875 C1.26589844 14.12449219 0.59429687 14.56148437 -0.09765625 15.01171875 C-2 16 -2 16 -5 16 C-5.33 15.67 -5.66 15.34 -6 15 C-8.67058851 14.85884839 -11.32432238 14.95752893 -14 15 C-11.03312999 13.35173889 -8.34373475 12.55728913 -5 12 C-6.32 11.67 -7.64 11.34 -9 11 C-9 10.34 -9 9.68 -9 9 C-8.34 8.67 -7.68 8.34 -7 8 C-7.66 7.34 -8.32 6.68 -9 6 C-3.32723489 5.70658112 -0.00932754 5.99440348 5 9 C3.7625 7.88625 3.7625 7.88625 2.5 6.75 C0 4 0 4 0 0 Z " fill="#CBB62E" transform="translate(51,40)"/>
<path d="M0 0 C-10.01692538 4.43056315 -22.47140729 6.54560659 -33.0625 2.5 C-34.031875 2.005 -35.00125 1.51 -36 1 C-35.67 0.34 -35.34 -0.32 -35 -1 C-34.23856689 -0.99476318 -33.47713379 -0.98952637 -32.69262695 -0.98413086 C-29.23259308 -0.96330475 -25.77257241 -0.95032187 -22.3125 -0.9375 C-21.11431641 -0.92912109 -19.91613281 -0.92074219 -18.68164062 -0.91210938 C-17.52470703 -0.90888672 -16.36777344 -0.90566406 -15.17578125 -0.90234375 C-13.58117065 -0.89448853 -13.58117065 -0.89448853 -11.9543457 -0.88647461 C-9.01646429 -0.91850019 -9.01646429 -0.91850019 -6.25854492 -1.56469727 C-3.4776572 -2.10067422 -2.35090174 -1.48019739 0 0 Z " fill="#FBFBF3" transform="translate(99,54)"/>
<path d="M0 0 C1.32 0 2.64 0 4 0 C2.125 4.75 2.125 4.75 1 7 C2.98 6.34 4.96 5.68 7 5 C6.38722388 7.96175123 5.74627478 9.38058783 4 12 C5.65 11.34 7.3 10.68 9 10 C9 8.02 9 6.04 9 4 C11.31 5.98 13.62 7.96 16 10 C14.68 10.33 13.36 10.66 12 11 C9.97048465 12.28796166 7.96498322 13.61558 6 15 C6.680625 16.093125 7.36125 17.18625 8.0625 18.3125 C9.22265625 20.17578125 9.22265625 20.17578125 10 22 C9.67 22.99 9.34 23.98 9 25 C8.6596875 24.38253906 8.319375 23.76507813 7.96875 23.12890625 C4.29681806 16.71279114 0.09111845 11.34955086 -5 6 C-4.67 5.34 -4.34 4.68 -4 4 C-4 3.67 -4 3.34 -4 3 C-2.68 2.67 -1.36 2.34 0 2 C0 1.34 0 0.68 0 0 Z " fill="#D7C764" transform="translate(31,99)"/>
<path d="M0 0 C-0.42594588 1.44096586 -0.86626633 2.87768712 -1.3125 4.3125 C-1.55613281 5.11300781 -1.79976562 5.91351563 -2.05078125 6.73828125 C-3.04182023 9.09964573 -4.08074943 10.33879993 -6 12 C-5.67 9.69 -5.34 7.38 -5 5 C-5.99 6.32 -6.98 7.64 -8 9 C-8 7.68 -8 6.36 -8 5 C-11.63 4.34 -15.26 3.68 -19 3 C-18.67 3.66 -18.34 4.32 -18 5 C-19.32 4.34 -20.64 3.68 -22 3 C-22 2.34 -22 1.68 -22 1 C-14.63739586 -1.92415484 -7.28172794 -4.10722183 0 0 Z " fill="#C5AD07" transform="translate(122,115)"/>
<path d="M0 0 C-0.928125 0.4021875 -0.928125 0.4021875 -1.875 0.8125 C-4.2995233 1.95556848 -4.2995233 1.95556848 -6 5 C-1.47618873 7.04301154 3.16371695 8.00956295 8 9 C8 7.68 8 6.36 8 5 C9.32 5.33 10.64 5.66 12 6 C11.6875 8.375 11.6875 8.375 11 11 C7.81237635 13.12508244 5.73487777 13.5020163 2 14 C2.33 16.31 2.66 18.62 3 21 C2.71253906 20.41992188 2.42507812 19.83984375 2.12890625 19.2421875 C-1.72118986 11.5952838 -5.48007193 7.32518739 -13 3 C-8.16353702 -0.22430866 -5.73060016 -0.09242903 0 0 Z " fill="#C7B013" transform="translate(119,48)"/>
<path d="M0 0 C0.33 0 0.66 0 1 0 C1.22084624 6.09781001 1.01167675 11.21642935 -1 17 C-1.495 16.67 -1.99 16.34 -2.5 16 C-6.09090894 14.56363642 -9.14456127 14.87148538 -13 15 C-13.33 14.01 -13.66 13.02 -14 12 C-13.39671875 11.93941406 -12.7934375 11.87882812 -12.171875 11.81640625 C-11.37265625 11.73261719 -10.5734375 11.64882812 -9.75 11.5625 C-8.96109375 11.48128906 -8.1721875 11.40007812 -7.359375 11.31640625 C-5.17635361 11.02365007 -3.1226818 10.57935581 -1 10 C-0.67 8.35 -0.34 6.7 0 5 C-0.66 5 -1.32 5 -2 5 C-2.66 6.32 -3.32 7.64 -4 9 C-5.62490954 9.02698189 -7.24994633 9.04638757 -8.875 9.0625 C-10.23238281 9.07990234 -10.23238281 9.07990234 -11.6171875 9.09765625 C-14 9 -14 9 -16 8 C-15.67 7.01 -15.34 6.02 -15 5 C-14.40832031 4.96261719 -13.81664062 4.92523438 -13.20703125 4.88671875 C-8.00258172 4.45372213 -3.86821077 3.86821077 0 0 Z " fill="#FAF9EF" transform="translate(145,70)"/>
<path d="M0 0 C0.763125 0.639375 1.52625 1.27875 2.3125 1.9375 C4.88246713 4.14232781 4.88246713 4.14232781 8 5 C7.57759558 8.37923539 6.57594371 10.96262075 5 13.9375 C3.24981651 17.27933587 2.37900121 20.20998786 2 24 C-2.21422242 21.11658466 -3.76075855 18.95696581 -5 14 C-7.97 13.505 -7.97 13.505 -11 13 C-7.86650268 11.95550089 -7.01031744 12.06576355 -4 13 C-3.67 12.34 -3.34 11.68 -3 11 C-2.67 11.66 -2.34 12.32 -2 13 C-1.01 12.01 -0.02 11.02 1 10 C0.67 12.31 0.34 14.62 0 17 C1.65 13.37 3.3 9.74 5 6 C3.741875 5.855625 2.48375 5.71125 1.1875 5.5625 C-1.42667123 5.26251314 -3.47439892 4.84186703 -6 4 C-4.02 2.68 -2.04 1.36 0 0 Z " fill="#D7C86A" transform="translate(117,109)"/>
<path d="M0 0 C5.625 2.25 5.625 2.25 8.3125 5.625 C8.82425781 6.25664063 9.33601562 6.88828125 9.86328125 7.5390625 C10.23839844 8.02117188 10.61351562 8.50328125 11 9 C9.55049545 12.7910119 7.84827434 16.3874638 6 20 C4.68 19.67 3.36 19.34 2 19 C2.474375 17.96875 2.94875 16.9375 3.4375 15.875 C4.84522388 12.61465838 5.56835498 9.53948917 6 6 C5.34 5.67 4.68 5.34 4 5 C3.67 8.3 3.34 11.6 3 15 C2.01 15.33 1.02 15.66 0 16 C0 10.72 0 5.44 0 0 Z " fill="#C7B119" transform="translate(129,34)"/>
<path d="M0 0 C2.29633824 3.44450737 2.54016485 5.93812283 3 10 C3.66 10 4.32 10 5 10 C5 7.69 5 5.38 5 3 C5.66 3 6.32 3 7 3 C7.99 5.64 8.98 8.28 10 11 C8.68 11.99 7.36 12.98 6 14 C5.01 13.34 4.02 12.68 3 12 C0.76932768 12.01163572 0.76932768 12.01163572 -1.5625 12.4375 C-5.80225282 13.09887359 -5.80225282 13.09887359 -8 12 C-7.01 9.03 -6.02 6.06 -5 3 C-4.67 3 -4.34 3 -4 3 C-3.87625 3.969375 -3.7525 4.93875 -3.625 5.9375 C-3.41875 6.948125 -3.2125 7.95875 -3 9 C-2.34 9.33 -1.68 9.66 -1 10 C-1.020625 8.906875 -1.04125 7.81375 -1.0625 6.6875 C-1 3 -1 3 0 0 Z " fill="#F5F3DE" transform="translate(80,66)"/>
<path d="M0 0 C1.49341969 2.98683937 0.40648676 4.95160978 -0.4375 8.125 C-0.72496094 9.22070312 -1.01242188 10.31640625 -1.30859375 11.4453125 C-1.53675781 12.28835937 -1.76492188 13.13140625 -2 14 C-1.34 14 -0.68 14 0 14 C0 13.34 0 12.68 0 12 C0.99 11.67 1.98 11.34 3 11 C3.061875 11.61875 3.12375 12.2375 3.1875 12.875 C3.79395518 15.17852952 3.79395518 15.17852952 6 16 C6.99 16.33 7.98 16.66 9 17 C10.6097065 17.69565206 12.2135969 18.40486412 13.8125 19.125 C14.99779297 19.65480469 14.99779297 19.65480469 16.20703125 20.1953125 C16.79871094 20.46085937 17.39039062 20.72640625 18 21 C18 21.33 18 21.66 18 22 C12.34139667 22.3464451 8.91920235 21.60428359 4 19 C3.34 18.01 2.68 17.02 2 16 C1.67 18.64 1.34 21.28 1 24 C0.67 24 0.34 24 0 24 C0 21.03 0 18.06 0 15 C-1.32 15.33 -2.64 15.66 -4 16 C-4.36266924 10.19729221 -3.30512167 6.34788227 -1 1 C-0.67 0.67 -0.34 0.34 0 0 Z " fill="#CEBA41" transform="translate(15,52)"/>
<path d="M0 0 C0.33 0 0.66 0 1 0 C1.33 3.63 1.66 7.26 2 11 C0.68 11.33 -0.64 11.66 -2 12 C-1.67 13.32 -1.34 14.64 -1 16 C-2.32 16.33 -3.64 16.66 -5 17 C-5.50512244 15.39743892 -6.00391627 13.79288208 -6.5 12.1875 C-6.7784375 11.29417969 -7.056875 10.40085937 -7.34375 9.48046875 C-8 7 -8 7 -8 4 C-6 2.3125 -6 2.3125 -4 1 C-3.67 3.64 -3.34 6.28 -3 9 C-2.814375 7.329375 -2.814375 7.329375 -2.625 5.625 C-2 2 -2 2 0 0 Z " fill="#C9B424" transform="translate(33,36)"/>
<path d="M0 0 C1.46067199 0.45082469 2.91848032 0.91093537 4.375 1.375 C5.18710937 1.63023438 5.99921875 1.88546875 6.8359375 2.1484375 C9 3 9 3 11 5 C8.19446215 7.46547265 5.94984146 9.01935944 2.4375 10.375 C-1.61228346 12.28944309 -2.71322045 14.24314787 -5 18 C-5.99 18.33 -6.98 18.66 -8 19 C-8.33 16.69 -8.66 14.38 -9 12 C-8.01 13.32 -7.02 14.64 -6 16 C-3.75959342 13.18291805 -3.75959342 13.18291805 -3.8125 10 C-3 7 -3 7 -1.3828125 5.9453125 C0.37512757 5.20401247 2.18678798 4.59341484 4 4 C3.01 3.67 2.02 3.34 1 3 C0.67 2.01 0.34 1.02 0 0 Z " fill="#D0BD4D" transform="translate(50,112)"/>
<path d="M0 0 C-0.66 0.37125 -1.32 0.7425 -2 1.125 C-4.35303045 2.90894778 -4.35303045 2.90894778 -4.25 6.1875 C-4.12625 7.5796875 -4.12625 7.5796875 -4 9 C-5.5 7.625 -5.5 7.625 -7 6 C-7 5.34 -7 4.68 -7 4 C-7.99 4.33 -8.98 4.66 -10 5 C-11.83140741 5.09377689 -13.66619987 5.12992957 -15.5 5.125 C-16.93859375 5.12886719 -16.93859375 5.12886719 -18.40625 5.1328125 C-21 5 -21 5 -24 4 C-24.33 4.99 -24.66 5.98 -25 7 C-28 2.25 -28 2.25 -28 0 C-26.71609375 0.24169922 -26.71609375 0.24169922 -25.40625 0.48828125 C-22.05458351 0.99179996 -18.88692103 1.16733976 -15.5 1.1875 C-13.87578125 1.20876953 -13.87578125 1.20876953 -12.21875 1.23046875 C-8.94606883 1.12987232 -8.94606883 1.12987232 -5.78125 -0.07421875 C-3 -1 -3 -1 0 0 Z " fill="#DDD183" transform="translate(95,113)"/>
<path d="M0 0 C1.32 1.32 2.64 2.64 4 4 C3.67 4.66 3.34 5.32 3 6 C2.34 6 1.68 6 1 6 C1 12.27 1 18.54 1 25 C-1.3129482 22.6870518 -1.49580975 21.52095125 -2.125 18.375 C-2.37636719 17.14910156 -2.37636719 17.14910156 -2.6328125 15.8984375 C-2.75398438 15.27195312 -2.87515625 14.64546875 -3 14 C-3.66 14.66 -4.32 15.32 -5 16 C-10.29577465 16.56338028 -10.29577465 16.56338028 -12.875 14.5 C-13.24625 14.005 -13.6175 13.51 -14 13 C-13.67 12.34 -13.34 11.68 -13 11 C-12.46375 11.20625 -11.9275 11.4125 -11.375 11.625 C-7.79866981 12.18968371 -6.16455402 11.81793529 -3 10 C-1.55880635 6.7586537 -0.72871574 3.46459586 0 0 Z " fill="#D5C562" transform="translate(35,71)"/>
<path d="M0 0 C0.66 0 1.32 0 2 0 C2.33 2.64 2.66 5.28 3 8 C4.49853516 8.50660156 4.49853516 8.50660156 6.02734375 9.0234375 C7.33086217 9.47357336 8.63424043 9.92411525 9.9375 10.375 C10.59685547 10.59671875 11.25621094 10.8184375 11.93554688 11.046875 C16.88671875 12.7734375 16.88671875 12.7734375 18 15 C17.505 14.835 17.01 14.67 16.5 14.5 C13.67076913 13.93415383 10.98114037 13.98808795 8.10546875 14.03125 C5.00618409 13.98524949 2.05494562 13.5091576 -1 13 C-1.02686553 11.02090602 -1.04633375 9.04171029 -1.0625 7.0625 C-1.07410156 5.96035156 -1.08570312 4.85820313 -1.09765625 3.72265625 C-1 1 -1 1 0 0 Z " fill="#EEE9C2" transform="translate(91,64)"/>
<path d="M0 0 C10.90498981 -0.42425753 21.30737246 -0.35530023 30 7 C30.875 9.25 30.875 9.25 31 11 C30.01 11.495 30.01 11.495 29 12 C28.67 10.68 28.34 9.36 28 8 C26.02 8 24.04 8 22 8 C22.66 7.34 23.32 6.68 24 6 C21.17178809 4.78027516 21.17178809 4.78027516 18.86328125 5.43359375 C14.95387055 6.20694239 11.16098341 6.10579865 7.1875 6.0625 C6.00510742 6.05573242 6.00510742 6.05573242 4.79882812 6.04882812 C2.86585239 6.03711312 0.93291607 6.01917998 -1 6 C-1 5.67 -1 5.34 -1 5 C0.04800781 4.93941406 1.09601563 4.87882812 2.17578125 4.81640625 C3.55470048 4.73198262 4.93360605 4.64733553 6.3125 4.5625 C7.00279297 4.52318359 7.69308594 4.48386719 8.40429688 4.44335938 C11.47161535 4.25072585 14.06968152 3.97677283 17 3 C13.43928688 1.95117609 9.94472103 1.69613047 6.25 1.4375 C5.07953125 1.35371094 3.9090625 1.26992188 2.703125 1.18359375 C1.81109375 1.12300781 0.9190625 1.06242187 0 1 C0 0.67 0 0.34 0 0 Z " fill="#CBB63A" transform="translate(74,48)"/>
<path d="M0 0 C1.32 0 2.64 0 4 0 C2.62712658 3.69876091 0.93644547 6.9514476 -1.125 10.3125 C-1.66382812 11.19550781 -2.20265625 12.07851562 -2.7578125 12.98828125 C-3.16773437 13.65214844 -3.57765625 14.31601563 -4 15 C-3.34 15.33 -2.68 15.66 -2 16 C-5.79557881 16 -7.62902617 15.49821059 -11 14 C-10.29875 13.360625 -9.5975 12.72125 -8.875 12.0625 C-5.787027 9.03576159 -3.71155871 5.50189887 -1.52734375 1.79296875 C-1.02332031 1.20128906 -0.51929687 0.60960938 0 0 Z " fill="#C7B015" transform="translate(71,123)"/>
<path d="M0 0 C0 0.33 0 0.66 0 1 C-4.21964946 2.01629322 -8.22873996 2.16598183 -12.5625 2.1875 C-13.86316406 2.20167969 -15.16382812 2.21585938 -16.50390625 2.23046875 C-19.68701826 2.02063232 -21.36406237 1.69692677 -24 0 C-16.16756183 -2.7848669 -7.76543213 -3.35802471 0 0 Z " fill="#FAFAF1" transform="translate(93,51)"/>
<path d="M0 0 C0.99 0 1.98 0 3 0 C2.835 0.66 2.67 1.32 2.5 2 C1.67175064 6.96949619 1.16143684 11.24664066 3.375 15.875 C4.97108919 18.05919833 4.97108919 18.05919833 7 20 C5.02 20 3.04 20 1 20 C0.5978125 19.0409375 0.5978125 19.0409375 0.1875 18.0625 C-0.88667752 15.66868314 -0.88667752 15.66868314 -4 15 C-4.33 14.01 -4.66 13.02 -5 12 C-4.566875 11.443125 -4.13375 10.88625 -3.6875 10.3125 C-1.30612184 7.04912993 -0.85291317 3.93652234 0 0 Z " fill="#C6AF13" transform="translate(76,124)"/>
<path d="M0 0 C1.80166872 1.04544991 3.59105379 2.1120877 5.375 3.1875 C6.87160156 4.07501953 6.87160156 4.07501953 8.3984375 4.98046875 C11.22694778 7.17617418 12.02735933 8.60747622 13 12 C11.3125 12.75 11.3125 12.75 9 13 C4.87742291 10.35732238 1.84728952 6.93595904 -1 3 C-0.67 2.01 -0.34 1.02 0 0 Z " fill="#EEE9C2" transform="translate(91,122)"/>
<path d="M0 0 C3.4375 1.3125 3.4375 1.3125 7 3 C7.33 3.99 7.66 4.98 8 6 C5.0703125 5.56054688 5.0703125 5.56054688 2.140625 5.12109375 C-0.12638056 4.99285073 -1.83849957 5.34278703 -4 6 C-3.71125 6.61488281 -3.4225 7.22976562 -3.125 7.86328125 C-2.75375 8.67152344 -2.3825 9.47976562 -2 10.3125 C-1.62875 11.11300781 -1.2575 11.91351563 -0.875 12.73828125 C0 15 0 15 0 18 C0.66 18 1.32 18 2 18 C1.67 16.02 1.34 14.04 1 12 C1.99 12.99 2.98 13.98 4 15 C3.01 17.475 3.01 17.475 2 20 C1.01 20 0.02 20 -1 20 C-1.26554687 19.25234375 -1.53109375 18.5046875 -1.8046875 17.734375 C-2.15789063 16.74953125 -2.51109375 15.7646875 -2.875 14.75 C-3.22304688 13.77546875 -3.57109375 12.8009375 -3.9296875 11.796875 C-4.83274645 9.43705673 -5.82078418 7.23094884 -7 5 C-6.030625 4.54625 -5.06125 4.0925 -4.0625 3.625 C-0.92920418 2.34213779 -0.92920418 2.34213779 0 0 Z " fill="#F3F0D6" transform="translate(43,108)"/>
<path d="M0 0 C0.5775 0.7425 1.155 1.485 1.75 2.25 C3.72748501 4.66692613 5.75927459 6.83155606 8 9 C8.515625 9.556875 9.03125 10.11375 9.5625 10.6875 C11.08143922 12.25277889 11.08143922 12.25277889 14 13 C14 13.66 14 14.32 14 15 C8.63056138 15.4602376 5.85006193 13.53290846 1.8125 10.1875 C-0.33384526 7.5970833 -1.12093521 5.22323757 -2 2 C-1.34 1.34 -0.68 0.68 0 0 Z " fill="#C8B119" transform="translate(23,48)"/>
<path d="M0 0 C1.32 1.32 2.64 2.64 4 4 C3.34 5.32 2.68 6.64 2 8 C1.67 7.01 1.34 6.02 1 5 C0.46375 5.61875 -0.0725 6.2375 -0.625 6.875 C-4.96111406 10.754681 -9.32529522 11.27022404 -15 11 C-15.33 10.34 -15.66 9.68 -16 9 C-15.26394531 8.76925781 -14.52789062 8.53851563 -13.76953125 8.30078125 C-7.9546169 6.35735545 -3.8791944 4.81555167 0 0 Z " fill="#C9B21E" transform="translate(145,65)"/>
<path d="M0 0 C0 4.47694599 -2.08429812 7.95352751 -3.90625 11.9921875 C-4.97098243 14.92020169 -5.22715229 16.92208649 -5 20 C-5.99 20.33 -6.98 20.66 -8 21 C-8 21.66 -8 22.32 -8 23 C-8.66 23 -9.32 23 -10 23 C-9.56775039 15.4579895 -8.83535672 9.34907699 -3 4 C-1.98199424 2.68036291 -0.97751635 1.34990354 0 0 Z " fill="#CFBD4B" transform="translate(23,43)"/>
<path d="M0 0 C4.63009345 3.08672897 7.25165244 6.75495732 9 12 C8.67 12.66 8.34 13.32 8 14 C6.25 13.875 6.25 13.875 4 13 C1.06835018 9.57974188 0.04242732 7.65762353 -0.25 3.125 C-0.1675 2.09375 -0.085 1.0625 0 0 Z " fill="#FBFBF2" transform="translate(87,126)"/>
<path d="M0 0 C0 3 0 3 -1.96875 5.26171875 C-3.22171875 6.46248047 -3.22171875 6.46248047 -4.5 7.6875 C-5.3353125 8.49574219 -6.170625 9.30398437 -7.03125 10.13671875 C-7.6809375 10.75160156 -8.330625 11.36648437 -9 12 C-9.33 11.34 -9.66 10.68 -10 10 C-10.78375 9.855625 -11.5675 9.71125 -12.375 9.5625 C-15.25125721 8.94615917 -16.16384707 8.22271144 -18 6 C-19.32 6.99 -20.64 7.98 -22 9 C-22.66 8.67 -23.32 8.34 -24 8 C-21.03 5.69 -18.06 3.38 -15 1 C-14.67 2.32 -14.34 3.64 -14 5 C-11.52066803 6.77148372 -11.52066803 6.77148372 -9 8 C-7.87411986 7.04270084 -6.7493285 6.08412105 -5.625 5.125 C-4.99851563 4.59132813 -4.37203125 4.05765625 -3.7265625 3.5078125 C-2.44163349 2.38567993 -1.20628025 1.20628025 0 0 Z " fill="#CBB635" transform="translate(135,104)"/>
<path d="M0 0 C0.66 0.33 1.32 0.66 2 1 C1.08110546 5.96203051 -0.91617613 9.10885593 -4.8125 12.3125 C-8.2422596 14.12825508 -10.18477822 14.36335446 -14 14 C-13.0409375 13.5978125 -13.0409375 13.5978125 -12.0625 13.1875 C-9.66868314 12.11332248 -9.66868314 12.11332248 -9 9 C-8.236875 8.566875 -7.47375 8.13375 -6.6875 7.6875 C-3.40823905 5.62842917 -1.9726879 3.28781317 0 0 Z " fill="#C6AE0F" transform="translate(140,50)"/>
<path d="M0 0 C0 2.64 0 5.28 0 8 C-0.66 7.67 -1.32 7.34 -2 7 C-2 5.68 -2 4.36 -2 3 C-2.78375 3.66 -3.5675 4.32 -4.375 5 C-7 7 -7 7 -9 7 C-9.33 9.64 -9.66 12.28 -10 15 C-10.66 14.67 -11.32 14.34 -12 14 C-12.05399736 12.54207116 -12.09279177 11.08357288 -12.125 9.625 C-12.15980469 8.40683594 -12.15980469 8.40683594 -12.1953125 7.1640625 C-12 5 -12 5 -10 3 C-8.125 2.1484375 -8.125 2.1484375 -6 1.375 C-5.29875 1.11460938 -4.5975 0.85421875 -3.875 0.5859375 C-2 0 -2 0 0 0 Z " fill="#ECE6BB" transform="translate(41,31)"/>
<path d="M0 0 C0.66 0.33 1.32 0.66 2 1 C1.25 7.625 1.25 7.625 -1 11 C-5.16343644 13.554836 -8.13209925 14.3477072 -13 14 C-10.49000892 11.84857907 -8.42919652 10.15970103 -5.3125 9 C-2.8881966 8.20031442 -2.8881966 8.20031442 -1.75 6.125 C-1.03392782 4.09612882 -0.45072134 2.10336625 0 0 Z " fill="#C7B015" transform="translate(142,56)"/>
<path d="M0 0 C0.61875 0.86625 0.61875 0.86625 1.25 1.75 C3.02470769 4.03176703 4.9254445 5.99027436 7 8 C7.515625 8.556875 8.03125 9.11375 8.5625 9.6875 C10.08143922 11.25277889 10.08143922 11.25277889 13 12 C13 12.66 13 13.32 13 14 C9.31050151 14.55901492 7.29984689 13.79364526 4.3125 11.75 C1.75613576 9.76728612 -0.18943789 8.24224844 -1 5 C-0.625 2.25 -0.625 2.25 0 0 Z " fill="#C6AF12" transform="translate(20,55)"/>
<path d="M0 0 C0.66 0 1.32 0 2 0 C2.62841797 0.69029297 2.62841797 0.69029297 3.26953125 1.39453125 C5.57062967 3.52941037 7.6591037 3.93930797 10.6875 4.6875 C11.68136719 4.93886719 12.67523438 5.19023438 13.69921875 5.44921875 C14.83810547 5.72185547 14.83810547 5.72185547 16 6 C16 6.66 16 7.32 16 8 C11.13520389 9.52024878 7.74303197 8.47733783 3 7 C2.34 6.34 1.68 5.68 1 5 C0.67 5 0.34 5 0 5 C0 3.35 0 1.7 0 0 Z " fill="#FAFAF1" transform="translate(17,69)"/>
<path d="M0 0 C0.66 0 1.32 0 2 0 C1.67 3.63 1.34 7.26 1 11 C-1.97 11 -4.94 11 -8 11 C-5.8715399 7.69721709 -3.84609921 4.71057067 -1 2 C-0.67 1.34 -0.34 0.68 0 0 Z " fill="#EFE9C5" transform="translate(70,66)"/>
<path d="M0 0 C0.82041075 2.29715009 1.1049494 3.62684659 0.4375 6 C-1.70131708 8.9757455 -3.7181896 10.3590948 -7 12 C-9.84193966 12.03577982 -12.18858999 11.58167104 -15 11 C-15 10.67 -15 10.34 -15 10 C-8.12542373 8.01694915 -8.12542373 8.01694915 -5.6875 7.6875 C-3.71290277 7.10692843 -3.71290277 7.10692843 -2.875 4.5625 C-2.58625 3.716875 -2.2975 2.87125 -2 2 C-1.34 1.34 -0.68 0.68 0 0 Z " fill="#F7F6E6" transform="translate(145,60)"/>
<path d="M0 0 C0.66 0.99 1.32 1.98 2 3 C3.97747122 3.36297936 3.97747122 3.36297936 6.125 3.1875 C7.40375 3.125625 8.6825 3.06375 10 3 C9.34 4.65 8.68 6.3 8 8 C0.25 6.125 0.25 6.125 -2 5 C-2.33 5.99 -2.66 6.98 -3 8 C-3.33 7.34 -3.66 6.68 -4 6 C-2.68 4.02 -1.36 2.04 0 0 Z " fill="#FAFAF0" transform="translate(128,95)"/>
<path d="M0 0 C3 1 3 1 4.375 3.375 C6.22994835 6.37145503 8.02615304 7.23176667 11 9 C11 9.99 11 10.98 11 12 C6.61249708 10.80340829 3.76678738 9.68904984 1 6 C0.25 2.75 0.25 2.75 0 0 Z " fill="#F8F7E8" transform="translate(17,59)"/>
<path d="M0 0 C0.33 0.66 0.66 1.32 1 2 C2.64455275 2.71949183 4.31923769 3.36971413 6 4 C7.60773877 4.70018774 9.21171454 5.40905816 10.8125 6.125 C11.60269531 6.47820312 12.39289062 6.83140625 13.20703125 7.1953125 C13.79871094 7.46085937 14.39039063 7.72640625 15 8 C15 8.33 15 8.66 15 9 C9.34871077 9.3459973 5.88424732 8.68154755 1 6 C-0.5 3.9375 -0.5 3.9375 -1 2 C-0.67 1.34 -0.34 0.68 0 0 Z " fill="#C7B015" transform="translate(18,65)"/>
<path d="M0 0 C0.33 0 0.66 0 1 0 C1.18175781 0.75925781 1.36351562 1.51851562 1.55078125 2.30078125 C1.80214844 3.29464844 2.05351562 4.28851563 2.3125 5.3125 C2.55613281 6.29863281 2.79976562 7.28476562 3.05078125 8.30078125 C4.00049589 11.00141012 4.81847677 12.20956216 7 14 C6.01 14.33 5.02 14.66 4 15 C2.02 12.36 0.04 9.72 -2 7 C-2.99 7.495 -2.99 7.495 -4 8 C-2.87548273 5.0280615 -1.77706209 2.66559313 0 0 Z " fill="#FBFBF3" transform="translate(25,42)"/>
<path d="M0 0 C0 0.33 0 0.66 0 1 C-2.31 1.33 -4.62 1.66 -7 2 C-7 2.66 -7 3.32 -7 4 C-5.35 4 -3.7 4 -2 4 C-2.33 4.66 -2.66 5.32 -3 6 C-5.64860427 6.59355614 -8.29197322 6.74209269 -11 7 C-12 4 -12 4 -11.125 1.8125 C-7.78586305 -1.0355874 -4.21515401 -0.31812483 0 0 Z " fill="#C6AE0D" transform="translate(49,47)"/>
<path d="M0 0 C2.31 0 4.62 0 7 0 C7.33 0.66 7.66 1.32 8 2 C6.68 2.33 5.36 2.66 4 3 C8.455 3.99 8.455 3.99 13 5 C13 5.66 13 6.32 13 7 C7.62007164 6.66009167 3.46726453 6.31442207 -1 3 C-0.67 2.01 -0.34 1.02 0 0 Z " fill="#EBE5BC" transform="translate(114,50)"/>
<path d="M0 0 C4.12989477 4.26311718 4.61271765 7.28758534 5 13 C1.535 14.485 1.535 14.485 -2 16 C-2 15.01 -2 14.02 -2 13 C-1.01 12.34 -0.02 11.68 1 11 C1.34062647 7.16795218 0.87790928 3.73111445 0 0 Z " fill="#E8E1AD" transform="translate(36,96)"/>
<path d="M0 0 C0.66 0 1.32 0 2 0 C1.75 2.375 1.75 2.375 1 5 C-2.00539449 7.02144573 -4.14488741 7.19502241 -7.6875 6.75 C-8.47511719 6.66234375 -9.26273438 6.5746875 -10.07421875 6.484375 C-11.02748047 6.24460937 -11.02748047 6.24460937 -12 6 C-12.33 5.34 -12.66 4.68 -13 4 C-12.22914063 3.96261719 -11.45828125 3.92523438 -10.6640625 3.88671875 C-9.15972656 3.78810547 -9.15972656 3.78810547 -7.625 3.6875 C-6.62726563 3.62949219 -5.62953125 3.57148437 -4.6015625 3.51171875 C-3.74304688 3.34285156 -2.88453125 3.17398438 -2 3 C-1.34 2.01 -0.68 1.02 0 0 Z " fill="#CBB52A" transform="translate(143,75)"/>
<path d="M0 0 C0.99 0.495 0.99 0.495 2 1 C2 1.66 2 2.32 2 3 C7.94 3.99 7.94 3.99 14 5 C13.67 5.66 13.34 6.32 13 7 C11.39667209 7.08121924 9.79215974 7.13929134 8.1875 7.1875 C7.29417969 7.22230469 6.40085937 7.25710937 5.48046875 7.29296875 C3 7 3 7 1.17578125 5.73828125 C0 4 0 4 0 0 Z " fill="#C9B221" transform="translate(18,73)"/>
<path d="M0 0 C0.99 0.33 1.98 0.66 3 1 C2.67 2.65 2.34 4.3 2 6 C0.35 6 -1.3 6 -3 6 C-3.268125 6.61875 -3.53625 7.2375 -3.8125 7.875 C-5 10 -5 10 -8 12 C-10.6875 12.125 -10.6875 12.125 -13 12 C-13 11.34 -13 10.68 -13 10 C-12.05125 9.9175 -11.1025 9.835 -10.125 9.75 C-9.09375 9.5025 -8.0625 9.255 -7 9 C-6.67 8.34 -6.34 7.68 -6 7 C-5.67 6.34 -5.34 5.68 -5 5 C-1.875 4.25 -1.875 4.25 1 4 C0.67 2.68 0.34 1.36 0 0 Z " fill="#CEBC46" transform="translate(102,130)"/>
<path d="M0 0 C0 1.32 0 2.64 0 4 C-1.77049689 4.05410687 -3.54146849 4.09284119 -5.3125 4.125 C-6.79169922 4.15980469 -6.79169922 4.15980469 -8.30078125 4.1953125 C-11 4 -11 4 -14 2 C-12.42085985 1.46658816 -10.83645613 0.94874237 -9.25 0.4375 C-8.36828125 0.14746094 -7.4865625 -0.14257812 -6.578125 -0.44140625 C-3.92165684 -1.01697435 -2.52968894 -0.89248371 0 0 Z " fill="#F6F3DF" transform="translate(103,56)"/>
<path d="M0 0 C2.96179996 1.37512141 5.42143842 3.00369426 8 5 C8.99 5.66 9.98 6.32 11 7 C10.360625 7.103125 9.72125 7.20625 9.0625 7.3125 C8.381875 7.539375 7.70125 7.76625 7 8 C6.67 8.99 6.34 9.98 6 11 C5.34 10.01 4.68 9.02 4 8 C3.29875 6.989375 2.5975 5.97875 1.875 4.9375 C0 2 0 2 0 0 Z " fill="#C7B016" transform="translate(90,127)"/>
<path d="M0 0 C0.763125 0.639375 1.52625 1.27875 2.3125 1.9375 C4.88246713 4.14232781 4.88246713 4.14232781 8 5 C6.70700306 7.88437779 5.34058637 9.87219421 3 12 C3.66 10.02 4.32 8.04 5 6 C3.741875 5.855625 2.48375 5.71125 1.1875 5.5625 C-1.42667123 5.26251314 -3.47439892 4.84186703 -6 4 C-4.02 2.68 -2.04 1.36 0 0 Z " fill="#F5F3DE" transform="translate(117,109)"/>
<path d="M0 0 C2.64 0 5.28 0 8 0 C7.67012361 2.47407292 7.42027913 3.6637767 5.4375 5.25 C1.89085382 6.34127575 -1.29528399 6.12349053 -5 6 C-2.03312999 4.35173889 0.65626525 3.55728913 4 3 C2.68 2.67 1.36 2.34 0 2 C0 1.34 0 0.68 0 0 Z " fill="#F6F4E1" transform="translate(42,49)"/>
<path d="M0 0 C2.31 1.98 4.62 3.96 7 6 C5.68 6.33 4.36 6.66 3 7 C2.01 7.804375 2.01 7.804375 1 8.625 C-1 10 -1 10 -3.25 9.6875 C-3.8275 9.460625 -4.405 9.23375 -5 9 C-3 7 -3 7 0 6 C0 4.02 0 2.04 0 0 Z " fill="#C9B42B" transform="translate(40,103)"/>
<path d="M0 0 C0.66 0.33 1.32 0.66 2 1 C1.67 4.3 1.34 7.6 1 11 C-0.65 11.33 -2.3 11.66 -4 12 C-2.68 8.04 -1.36 4.08 0 0 Z " fill="#C5AC08" transform="translate(135,42)"/>
<path d="M0 0 C0.99 0 1.98 0 3 0 C3.4125 0.94875 3.825 1.8975 4.25 2.875 C6.0040131 6.00716624 6.70851757 6.86500606 10 8 C7 9 7 9 4.4375 8.25 C2 7 2 7 0 4 C0 2.68 0 1.36 0 0 Z " fill="#C7B01B" transform="translate(51,40)"/>
<path d="M0 0 C1.28446919 2.56893838 1.32977144 4.76576337 1.5625 7.625 C1.64628906 8.62789062 1.73007812 9.63078125 1.81640625 10.6640625 C1.87699219 11.43492188 1.93757813 12.20578125 2 13 C0.68 13 -0.64 13 -2 13 C-2.05391993 11.20866022 -2.09275571 9.41686101 -2.125 7.625 C-2.14820313 6.62726562 -2.17140625 5.62953125 -2.1953125 4.6015625 C-2 2 -2 2 0 0 Z " fill="#C5AC0B" transform="translate(39,33)"/>
<path d="M0 0 C3.74525799 3.74525799 3.68909949 7.98270909 4 13 C3.34 13 2.68 13 2 13 C1.3291288 11.3767313 0.66342971 9.75132422 0 8.125 C-0.37125 7.22007813 -0.7425 6.31515625 -1.125 5.3828125 C-2 3 -2 3 -2 1 C-1.34 0.67 -0.68 0.34 0 0 Z " fill="#C9B327" transform="translate(41,113)"/>
<path d="M0 0 C-0.99 0.66 -1.98 1.32 -3 2 C-2.34 2.66 -1.68 3.32 -1 4 C-3.64 4 -6.28 4 -9 4 C-8.67 4.66 -8.34 5.32 -8 6 C-9.32 5.34 -10.64 4.68 -12 4 C-12 3.34 -12 2.68 -12 2 C-10.56656 1.46809459 -9.12804633 0.94984742 -7.6875 0.4375 C-6.48673828 0.00244141 -6.48673828 0.00244141 -5.26171875 -0.44140625 C-3 -1 -3 -1 0 0 Z " fill="#CFBD4B" transform="translate(112,114)"/>
<path d="M0 0 C0.33 0 0.66 0 1 0 C1 1.98 1 3.96 1 6 C-5.625 6.125 -5.625 6.125 -9 5 C-9 4.01 -9 3.02 -9 2 C-6.36 2 -3.72 2 -1 2 C-0.67 1.34 -0.34 0.68 0 0 Z " fill="#FAF9EE" transform="translate(139,91)"/>
<path d="M0 0 C5.29158974 1.40071493 7.77478044 4.85487245 11 9 C10.34 10.65 9.68 12.3 9 14 C8.67 14 8.34 14 8 14 C7.01 11.03 6.02 8.06 5 5 C3.35 4.67 1.7 4.34 0 4 C0 2.68 0 1.36 0 0 Z " fill="#D5C666" transform="translate(129,34)"/>
<path d="M0 0 C1.53445094 3.06890187 0.54984289 5.70094266 0 9 C-1.32 8.67 -2.64 8.34 -4 8 C-4.33 6.68 -4.66 5.36 -5 4 C-7.97 3.505 -7.97 3.505 -11 3 C-7.86650268 1.95550089 -7.01031744 2.06576355 -4 3 C-3.67 2.34 -3.34 1.68 -3 1 C-2.67 1.66 -2.34 2.32 -2 3 C-1.34 2.01 -0.68 1.02 0 0 Z " fill="#DED285" transform="translate(117,119)"/>
<path d="M0 0 C0.33 0.66 0.66 1.32 1 2 C3.35599235 2.46751788 3.35599235 2.46751788 6.0625 2.625 C7.44115234 2.73714844 7.44115234 2.73714844 8.84765625 2.8515625 C9.55792969 2.90054688 10.26820313 2.94953125 11 3 C10.39816251 5.02045442 9.72693904 7.02111039 9 9 C8.01 9.495 8.01 9.495 7 10 C7.66 8.02 8.32 6.04 9 4 C8.01 4.495 8.01 4.495 7 5 C5.00039988 5.039992 2.99952758 5.04346799 1 5 C0.67 3.35 0.34 1.7 0 0 Z " fill="#CDB838" transform="translate(129,94)"/>
<path d="M0 0 C2.50037734 2.17424117 3.43628586 3.73045798 4 7 C0.25 10 0.25 10 -2 10 C-2.22036864 6.14354879 -1.60355101 3.50776784 0 0 Z " fill="#F7F6E5" transform="translate(138,44)"/>
<path d="M0 0 C0.99 0.495 0.99 0.495 2 1 C3.54023996 1.06950541 5.08334988 1.08452357 6.625 1.0625 C7.44226563 1.05347656 8.25953125 1.04445313 9.1015625 1.03515625 C9.72804687 1.02355469 10.35453125 1.01195313 11 1 C10.34 2.32 9.68 3.64 9 5 C5.625 5.125 5.625 5.125 2 5 C1.34 4.34 0.68 3.68 0 3 C0 2.01 0 1.02 0 0 Z " fill="#C7AE14" transform="translate(130,83)"/>
<path d="M0 0 C4.7023135 4.7023135 4.95761242 5.45674499 5.0625 11.75 C5.041875 12.8225 5.02125 13.895 5 15 C4.34 15 3.68 15 3 15 C2.01 10.05 1.02 5.1 0 0 Z " fill="#F9F8EC" transform="translate(145,53)"/>
<path d="M0 0 C0.33 0 0.66 0 1 0 C1 1.98 1 3.96 1 6 C0.34 6 -0.32 6 -1 6 C-1.226875 6.639375 -1.45375 7.27875 -1.6875 7.9375 C-3 10 -3 10 -5.625 10.75 C-6.40875 10.8325 -7.1925 10.915 -8 11 C-7.21654285 9.82780457 -6.42297164 8.66236332 -5.625 7.5 C-5.18414062 6.8503125 -4.74328125 6.200625 -4.2890625 5.53125 C-3.86367187 5.0259375 -3.43828125 4.520625 -3 4 C-2.34 4 -1.68 4 -1 4 C-0.67 2.68 -0.34 1.36 0 0 Z " fill="#CEBA39" transform="translate(123,35)"/>
<path d="M0 0 C0.33 0 0.66 0 1 0 C1.33 3.63 1.66 7.26 2 11 C1.01 11.33 0.02 11.66 -1 12 C-1.22162329 10.37675914 -1.42689803 8.751279 -1.625 7.125 C-1.74101562 6.22007813 -1.85703125 5.31515625 -1.9765625 4.3828125 C-1.98429687 3.59648438 -1.99203125 2.81015625 -2 2 C-1.34 1.34 -0.68 0.68 0 0 Z " fill="#C5AB05" transform="translate(33,36)"/>
<path d="M0 0 C0.99 0 1.98 0 3 0 C2.57405412 1.44096586 2.13373367 2.87768712 1.6875 4.3125 C1.44386719 5.11300781 1.20023437 5.91351563 0.94921875 6.73828125 C-0.04182023 9.09964573 -1.08074943 10.33879993 -3 12 C-2.88541307 10.56163249 -2.75790884 9.12429034 -2.625 7.6875 C-2.55539063 6.88699219 -2.48578125 6.08648437 -2.4140625 5.26171875 C-2 3 -2 3 0 0 Z " fill="#C8B11F" transform="translate(119,115)"/>
<path d="M0 0 C1.258125 0.12375 2.51625 0.2475 3.8125 0.375 C4.87404297 0.47941406 4.87404297 0.47941406 5.95703125 0.5859375 C8 1 8 1 11 3 C11 3.66 11 4.32 11 5 C9.54052295 4.93993922 8.08220728 4.8511311 6.625 4.75 C5.81289062 4.70359375 5.00078125 4.6571875 4.1640625 4.609375 C2 4 2 4 0.7109375 1.953125 C0.47632812 1.30859375 0.24171875 0.6640625 0 0 Z " fill="#F4F1D8" transform="translate(102,117)"/>
<path d="M0 0 C0.33 0 0.66 0 1 0 C1.66 2.97 2.32 5.94 3 9 C-1 10 -1 10 -3 9 C-2.01 6.03 -1.02 3.06 0 0 Z " fill="#F9F8EB" transform="translate(75,69)"/>
<path d="M0 0 C0.66 0 1.32 0 2 0 C1.01 4.62 0.02 9.24 -1 14 C-1.66 14 -2.32 14 -3 14 C-2.88512252 12.41590006 -2.75765492 10.83271037 -2.625 9.25 C-2.55539062 8.36828125 -2.48578125 7.4865625 -2.4140625 6.578125 C-2.00149945 4.00933618 -1.28839043 2.24158985 0 0 Z " fill="#F9F8ED" transform="translate(16,52)"/>
<path d="M0 0 C0.99 0 1.98 0 3 0 C2.38722388 2.96175123 1.74627478 4.38058783 0 7 C-1.32 6.67 -2.64 6.34 -4 6 C-2.1875 3 -2.1875 3 0 0 Z " fill="#C8B21D" transform="translate(110,41)"/>
<path d="M0 0 C0 2.64 0 5.28 0 8 C-0.66 7.67 -1.32 7.34 -2 7 C-2 5.68 -2 4.36 -2 3 C-3.65 4.32 -5.3 5.64 -7 7 C-6.75 4.625 -6.75 4.625 -6 2 C-3.84898936 0.54286376 -2.59713506 0 0 0 Z " fill="#EFEBCA" transform="translate(41,31)"/>
<path d="M0 0 C-0.33 0.66 -0.66 1.32 -1 2 C-3.06265822 2.3911938 -5.09443267 2.50674519 -7.1875 2.65625 C-7.785625 2.7696875 -8.38375 2.883125 -9 3 C-9.33 3.66 -9.66 4.32 -10 5 C-10 3.68 -10 2.36 -10 1 C-6.42181037 -1.33958553 -4.07775191 -0.9267618 0 0 Z " fill="#F6F4E0" transform="translate(57,118)"/>
<path d="M0 0 C1.31223496 3.93670488 0.24296256 6.12488144 -1 10 C-1.99 9.67 -2.98 9.34 -4 9 C-4.33 7.35 -4.66 5.7 -5 4 C-4.0409375 3.8453125 -4.0409375 3.8453125 -3.0625 3.6875 C-2.381875 3.460625 -1.70125 3.23375 -1 3 C-0.67 2.01 -0.34 1.02 0 0 Z " fill="#F7F5E5" transform="translate(145,77)"/>
<path d="M0 0 C2.5654594 2.5654594 2.54046087 4.47686668 3 8 C2.34 7.34 1.68 6.68 1 6 C0.34 7.32 -0.32 8.64 -1 10 C-1.99 9.34 -2.98 8.68 -4 8 C-2.68 5.36 -1.36 2.72 0 0 Z " fill="#F6F5E4" transform="translate(142,51)"/>
<path d="M0 0 C3.4375 1.3125 3.4375 1.3125 7 3 C7.33 3.99 7.66 4.98 8 6 C4.7 5.67 1.4 5.34 -2 5 C-1.34 3.35 -0.68 1.7 0 0 Z " fill="#ECE6BB" transform="translate(43,108)"/>
<path d="M0 0 C0.66 0 1.32 0 2 0 C2.66 0.99 3.32 1.98 4 3 C6.05003955 4.19232613 6.05003955 4.19232613 8 5 C7.01 5.66 6.02 6.32 5 7 C2.5 5.75 2.5 5.75 0 4 C0 2.68 0 1.36 0 0 Z " fill="#F7F6E7" transform="translate(121,106)"/>
<path d="M0 0 C1.32 1.32 2.64 2.64 4 4 C3.01 6.97 2.02 9.94 1 13 C0.34 12.67 -0.32 12.34 -1 12 C-0.9278125 11.30132812 -0.855625 10.60265625 -0.78125 9.8828125 C-0.6884375 8.97273438 -0.595625 8.06265625 -0.5 7.125 C-0.4071875 6.22007813 -0.314375 5.31515625 -0.21875 4.3828125 C0.03047295 2.06686789 0.03047295 2.06686789 0 0 Z " fill="#F4F1D9" transform="translate(132,37)"/>
<path d="M0 0 C4.95 0 9.9 0 15 0 C15 0.33 15 0.66 15 1 C10.545 1.495 10.545 1.495 6 2 C6 2.33 6 2.66 6 3 C4.35 3 2.7 3 1 3 C0.67 2.01 0.34 1.02 0 0 Z " fill="#F2EFD5" transform="translate(69,59)"/>
<path d="M0 0 C0.99 0.66 1.98 1.32 3 2 C1.02 2.33 -0.96 2.66 -3 3 C-2.01 3.33 -1.02 3.66 0 4 C0 4.66 0 5.32 0 6 C-2.64 5.67 -5.28 5.34 -8 5 C-8 4.34 -8 3.68 -8 3 C-6.73637508 2.44172391 -5.4637081 1.90387903 -4.1875 1.375 C-3.47980469 1.07335938 -2.77210937 0.77171875 -2.04296875 0.4609375 C-1.36878906 0.30882812 -0.69460937 0.15671875 0 0 Z " fill="#D4C35C" transform="translate(73,48)"/>
<path d="M0 0 C0.33 0.99 0.66 1.98 1 3 C2.65 3 4.3 3 6 3 C5.34 4.32 4.68 5.64 4 7 C1.525 6.01 1.525 6.01 -1 5 C-0.67 3.35 -0.34 1.7 0 0 Z " fill="#FAF9EF" transform="translate(127,47)"/>
<path d="M0 0 C0.33 1.32 0.66 2.64 1 4 C-2.4352048 6.29013653 -3.985331 6.17842973 -8 6 C-5.38485683 3.87961365 -2.80362384 1.86908256 0 0 Z " fill="#C9B322" transform="translate(137,64)"/>
<path d="M0 0 C0.33 0.99 0.66 1.98 1 3 C-1 5 -1 5 -3.625 5.125 C-4.40875 5.08375 -5.1925 5.0425 -6 5 C-6.33 4.01 -6.66 3.02 -7 2 C-4.69 1.34 -2.38 0.68 0 0 Z " fill="#CDB93B" transform="translate(32,93)"/>
<path d="M0 0 C1.11375 0.495 1.11375 0.495 2.25 1 C5.13883312 2.22782871 5.13883312 2.22782871 9 2 C8.67 2.99 8.34 3.98 8 5 C5.125 5.125 5.125 5.125 2 5 C1.34 4.34 0.68 3.68 0 3 C0 2.01 0 1.02 0 0 Z " fill="#C8B11E" transform="translate(130,89)"/>
<path d="M0 0 C0.5625 1.9375 0.5625 1.9375 1 4 C0 5 0 5 -3.5625 5.0625 C-4.696875 5.041875 -5.83125 5.02125 -7 5 C-7.33 4.34 -7.66 3.68 -8 3 C-5.36 2.67 -2.72 2.34 0 2 C0 1.34 0 0.68 0 0 Z " fill="#C8B11F" transform="translate(31,87)"/>
<path d="M0 0 C0.99 0 1.98 0 3 0 C2.8864371 1.64666203 2.75882619 3.29236082 2.625 4.9375 C2.52058594 6.31228516 2.52058594 6.31228516 2.4140625 7.71484375 C2.27742188 8.46894531 2.14078125 9.22304687 2 10 C1.01 10.495 1.01 10.495 0 11 C0 7.37 0 3.74 0 0 Z " fill="#C4AA00" transform="translate(71,85)"/>
<path d="M0 0 C0.33 0 0.66 0 1 0 C1 2.31 1 4.62 1 7 C-0.32 7.33 -1.64 7.66 -3 8 C-1.125 1.125 -1.125 1.125 0 0 Z " fill="#C5AC09" transform="translate(126,39)"/>
<path d="M0 0 C4.16138263 -0.08159574 7.9472484 0.01751476 12 1 C12 1.33 12 1.66 12 2 C8.37 2.33 4.74 2.66 1 3 C0.67 2.01 0.34 1.02 0 0 Z " fill="#C4AB02" transform="translate(53,27)"/>
<path d="M0 0 C2.31 0 4.62 0 7 0 C7.33 0.66 7.66 1.32 8 2 C7.21625 2.144375 6.4325 2.28875 5.625 2.4375 C3.03578982 2.87798925 3.03578982 2.87798925 1 4 C0.34 3.67 -0.32 3.34 -1 3 C-0.67 2.01 -0.34 1.02 0 0 Z " fill="#F8F7EA" transform="translate(114,50)"/>
<path d="M0 0 C0.33 0 0.66 0 1 0 C1.33 1.98 1.66 3.96 2 6 C0.02 6.66 -1.96 7.32 -4 8 C-2.87548273 5.0280615 -1.77706209 2.66559313 0 0 Z " fill="#F6F5E2" transform="translate(25,42)"/>
<path d="M0 0 C1.98 0.495 1.98 0.495 4 1 C3.67 2.32 3.34 3.64 3 5 C1.68 4.67 0.36 4.34 -1 4 C-0.67 2.68 -0.34 1.36 0 0 Z " fill="#C9B324" transform="translate(60,35)"/>
<path d="M0 0 C1.32 0 2.64 0 4 0 C3.34 1.32 2.68 2.64 2 4 C0.35 4 -1.3 4 -3 4 C-3.33 3.34 -3.66 2.68 -4 2 C-2.68 2 -1.36 2 0 2 C0 1.34 0 0.68 0 0 Z " fill="#CBB52B" transform="translate(31,99)"/>
<path d="M0 0 C0.66 0 1.32 0 2 0 C2.33 3.3 2.66 6.6 3 10 C-0.29980516 6.70019484 -0.60974014 5.48798839 -1 1 C-0.67 0.67 -0.34 0.34 0 0 Z " fill="#D7C86E" transform="translate(145,58)"/>
<path d="M0 0 C-0.33 0.66 -0.66 1.32 -1 2 C-3.64 2 -6.28 2 -9 2 C-9 1.34 -9 0.68 -9 0 C-5.52176885 -1.15941038 -3.54104422 -0.70820884 0 0 Z " fill="#C6AD0E" transform="translate(32,78)"/>
<path d="M0 0 C0.33 0 0.66 0 1 0 C2.44262295 8.1147541 2.44262295 8.1147541 1 11 C0.34 11 -0.32 11 -1 11 C-0.67 7.37 -0.34 3.74 0 0 Z " fill="#CBB73C" transform="translate(122,70)"/>
<path d="M0 0 C1.32 0.33 2.64 0.66 4 1 C4 3.31 4 5.62 4 8 C3.34 8 2.68 8 2 8 C1.34 5.36 0.68 2.72 0 0 Z " fill="#F9F8EC" transform="translate(126,34)"/>
<path d="M0 0 C1.32 0.66 2.64 1.32 4 2 C3.67 2.99 3.34 3.98 3 5 C2.34 4.67 1.68 4.34 1 4 C0.34 4.99 -0.32 5.98 -1 7 C-0.67 4.69 -0.34 2.38 0 0 Z " fill="#CCB73A" transform="translate(87,123)"/>
<path d="M0 0 C0.99 0.66 1.98 1.32 3 2 C3 2.99 3 3.98 3 5 C0.5 6.6875 0.5 6.6875 -2 8 C-1.34 5.36 -0.68 2.72 0 0 Z " fill="#C9B318" transform="translate(151,101)"/>
<path d="M0 0 C2.9719385 1.12451727 5.33440687 2.22293791 8 4 C6.25 4.6875 6.25 4.6875 4 5 C1.75 3.6875 1.75 3.6875 0 2 C0 1.34 0 0.68 0 0 Z " fill="#C9B222" transform="translate(126,100)"/>
<path d="M0 0 C-2 2 -2 2 -5.625 2.125 C-6.73875 2.08375 -7.8525 2.0425 -9 2 C-9.33 1.34 -9.66 0.68 -10 0 C-6.30458414 -0.95024979 -3.69541586 -0.95024979 0 0 Z " fill="#C5AB0A" transform="translate(140,79)"/>
<path d="M0 0 C0.33 0.66 0.66 1.32 1 2 C-1.05233685 4.2477975 -2.00667261 5.0022242 -5 6 C-5 5.34 -5 4.68 -5 4 C-5.66 3.67 -6.32 3.34 -7 3 C-4.69 2.01 -2.38 1.02 0 0 Z " fill="#EAE2B6" transform="translate(130,58)"/>
<path d="M0 0 C1.485 0.99 1.485 0.99 3 2 C3 3.32 3 4.64 3 6 C1.68 6.33 0.36 6.66 -1 7 C-0.67 4.69 -0.34 2.38 0 0 Z " fill="#C5AD0C" transform="translate(130,37)"/>
<path d="M0 0 C0.33 0 0.66 0 1 0 C1 2.31 1 4.62 1 7 C-0.65 6.67 -2.3 6.34 -4 6 C-2.84826645 3.53199953 -1.95216435 1.95216435 0 0 Z " fill="#D4C35F" transform="translate(28,37)"/>
<path d="M0 0 C0.33 0.99 0.66 1.98 1 3 C-2.22791555 5.1519437 -3.28400809 5.20086443 -7 5 C-7 4.34 -7 3.68 -7 3 C-5.5459375 2.814375 -5.5459375 2.814375 -4.0625 2.625 C-2.5465625 2.315625 -2.5465625 2.315625 -1 2 C-0.67 1.34 -0.34 0.68 0 0 Z " fill="#D5C66A" transform="translate(96,137)"/>
<path d="M0 0 C2.31 0.33 4.62 0.66 7 1 C7 1.99 7 2.98 7 4 C5.35 4 3.7 4 2 4 C1.34 2.68 0.68 1.36 0 0 Z " fill="#C5AD0C" transform="translate(21,82)"/>
<path d="M0 0 C0.33 0.99 0.66 1.98 1 3 C-1 5 -1 5 -4.125 5.125 C-5.548125 5.063125 -5.548125 5.063125 -7 5 C-4.702779 3.25728062 -2.40133271 1.60088848 0 0 Z " fill="#D0BC46" transform="translate(31,82)"/>
</svg>
